<svg id="Layer_1" data-name="Layer 1" xmlns="http://www.w3.org/2000/svg" xmlns:xlink="http://www.w3.org/1999/xlink" viewBox="0 0 199.98 200"><defs><style>.cls-1{fill:url(#linear-gradient);}.cls-2{fill:#fff;}</style><linearGradient id="linear-gradient" x1="45.25" y1="704.71" x2="45.25" y2="704.32" gradientTransform="matrix(511.95, 0, 0, -512.01, -22481.6, 361028.61)" gradientUnits="userSpaceOnUse"><stop offset="0" stop-color="#f9aa4b"/><stop offset="1" stop-color="#f7931a"/></linearGradient></defs><g id="g16"><path id="coin" class="cls-1" d="M780.5,336.69a100,100,0,1,1-72.82-121.2,100,100,0,0,1,72.82,121.2Z" transform="translate(-583.51 -212.5)"/><path id="symbol" class="cls-2" d="M727.58,298.25c2-13.3-8.14-20.46-22-25.23l4.5-18-11-2.74-4.37,17.55c-2.88-.72-5.85-1.39-8.79-2.07l4.41-17.66-11-2.74-4.5,18c-2.38-.54-4.73-1.08-7-1.64v-.06l-15.13-3.78-2.92,11.72s8.14,1.87,8,2c4.44,1.11,5.24,4.05,5.11,6.38L657.8,300.5a10.12,10.12,0,0,1,1.14.36l-1.16-.28-7.17,28.76a4,4,0,0,1-5,2.61c.11.16-8-2-8-2l-5.45,12.56,14.28,3.55c2.65.67,5.26,1.37,7.82,2l-4.54,18.23,11,2.74,4.49-18c3,.81,5.9,1.56,8.75,2.27l-4.48,17.95,11,2.74,4.54-18.2c18.71,3.54,32.78,2.11,38.7-14.81,4.77-13.62-.24-21.48-10.08-26.61,7.17-1.65,12.57-6.37,14-16.11Zm-25.07,35.16c-3.39,13.62-26.33,6.26-33.77,4.41l6-24.15C682.2,315.52,706.05,319.2,702.51,333.41Zm3.39-35.35c-3.09,12.39-22.19,6.09-28.38,4.55L683,280.7C689.18,282.25,709.12,285.13,705.9,298.06Z" transform="translate(-583.51 -212.5)"/></g></svg>