<svg id="Layer_1" data-name="Layer 1" xmlns="http://www.w3.org/2000/svg" xmlns:xlink="http://www.w3.org/1999/xlink" viewBox="0 0 887 200"><defs><style>.cls-1{fill:#282828;}.cls-2{fill:#444;}.cls-3{fill:url(#linear-gradient);}.cls-4,.cls-9{fill:#fff;}.cls-5{fill:#2f3030;}.cls-6{fill:#818283;}.cls-7{fill:#343535;}.cls-8{fill:#50af95;}.cls-8,.cls-9{fill-rule:evenodd;}.cls-10{fill:#2775ca;}.cls-11{fill:#f5ac37;}.cls-12{fill:#fefefd;}.cls-13{font-size:48px;stroke:#000;stroke-miterlimit:10;stroke-width:4px;font-family:MyriadPro-Regular, Myriad Pro;}</style><linearGradient id="linear-gradient" x1="45.14" y1="704.71" x2="45.14" y2="704.32" gradientTransform="matrix(511.95, 0, 0, -512.01, -22481.6, 361028.61)" gradientUnits="userSpaceOnUse"><stop offset="0" stop-color="#f9aa4b"/><stop offset="1" stop-color="#f7931a"/></linearGradient></defs><polygon points="116.48 116.48 200 73.2 162.78 37.24 168.8 64.14 116.48 116.48"/><polygon points="116.48 83.54 73.2 0 37.24 37.24 64.14 31.2 116.48 83.54"/><polygon points="83.54 83.54 0 126.8 37.24 162.78 31.2 135.86 83.54 83.54"/><polygon points="83.54 116.48 126.8 200 162.78 162.78 135.86 168.8 83.54 116.48"/><polygon points="115.72 11.07 135.86 31.2 126.8 0 115.72 11.07"/><polygon points="11.07 84.28 31.2 64.14 0 73.2 11.07 84.28"/><polygon points="73.2 200 84.28 188.93 64.14 168.8 73.2 200"/><polygon points="188.93 115.72 168.8 135.86 200 126.8 188.93 115.72"/><polygon class="cls-1" points="116.48 116.48 136.61 136.61 200 73.2 116.48 116.48"/><polygon class="cls-1" points="136.61 63.41 73.2 0 116.48 83.54 136.61 63.41"/><polygon class="cls-1" points="63.41 63.41 0 126.8 83.54 83.54 63.41 63.41"/><polygon class="cls-1" points="63.41 136.61 126.8 200 83.54 116.48 63.41 136.61"/><polygon class="cls-1" points="200 73.2 186.6 13.4 135.86 31.2 162.78 37.24 200 73.2"/><polygon class="cls-1" points="31.2 64.14 37.24 37.24 73.2 0 13.4 13.4 31.2 64.14"/><polygon class="cls-1" points="0 126.8 13.4 186.6 64.14 168.8 37.24 162.78 0 126.8"/><polygon class="cls-1" points="162.78 162.78 126.8 200 186.6 186.6 168.8 135.86 162.78 162.78"/><polygon class="cls-2" points="126.8 0 135.86 31.2 186.6 13.4 126.8 0"/><polygon class="cls-2" points="13.4 13.4 0 73.2 31.2 64.14 13.4 13.4"/><polygon class="cls-2" points="13.4 186.6 73.2 200 64.14 168.8 13.4 186.6"/><polygon class="cls-2" points="168.8 135.86 186.6 186.6 200 126.8 168.8 135.86"/><g id="g16"><path id="coin" class="cls-3" d="M725,336.69a100,100,0,1,1-72.82-121.2A100,100,0,0,1,725,336.69Z" transform="translate(-240 -212.5)"/><path id="symbol" class="cls-4" d="M672.08,298.25c2-13.3-8.14-20.46-22-25.23l4.5-18-11-2.74-4.37,17.55c-2.88-.72-5.85-1.39-8.79-2.07l4.41-17.66-11-2.74-4.5,18c-2.38-.54-4.73-1.08-7-1.64v-.06l-15.13-3.78-2.92,11.72s8.14,1.87,8,2c4.44,1.11,5.24,4.05,5.11,6.38L602.3,300.5a10.12,10.12,0,0,1,1.14.36l-1.16-.28-7.17,28.76a4,4,0,0,1-5,2.61c.11.16-8-2-8-2l-5.45,12.56,14.28,3.55c2.65.67,5.26,1.37,7.82,2l-4.54,18.23,11,2.74,4.49-18c3,.81,5.9,1.56,8.75,2.27l-4.48,17.95,11,2.74,4.54-18.2c18.71,3.54,32.78,2.11,38.7-14.81,4.77-13.62-.24-21.48-10.08-26.61,7.17-1.65,12.57-6.37,14-16.11ZM647,333.41c-3.39,13.62-26.33,6.26-33.77,4.41l6-24.15C626.7,315.52,650.55,319.2,647,333.41Zm3.39-35.35c-3.09,12.39-22.19,6.09-28.38,4.55l5.46-21.91C633.68,282.25,653.62,285.13,650.4,298.06Z" transform="translate(-240 -212.5)"/></g><polygon class="cls-5" points="452 149.93 452 200 513.47 113.66 452 149.93"/><polygon points="452 74.07 452 138.34 513.47 101.98 452 74.07"/><polygon class="cls-5" points="452 0 452 74.07 513.47 101.98 452 0"/><polygon class="cls-6" points="452 149.93 452 200 390.53 113.66 452 149.93"/><polygon class="cls-7" points="452 74.07 452 138.34 390.53 101.98 452 74.07"/><polygon class="cls-6" points="452 0 452 74.07 390.53 101.98 452 0"/><path class="cls-8" d="M737.14,213.48l-41.92,88.06a1.69,1.69,0,0,0,.37,2L808.8,412a1.74,1.74,0,0,0,2.4,0L924.41,303.53a1.69,1.69,0,0,0,.37-2l-41.92-88.05a1.69,1.69,0,0,0-1.55-1H738.7a1.7,1.7,0,0,0-1.56,1Z" transform="translate(-240 -212.5)"/><path class="cls-9" d="M824.55,310.58h0c-.82.06-5,.31-14.38.31-7.45,0-12.74-.22-14.6-.31h0c-28.79-1.27-50.29-6.28-50.29-12.28s21.5-11,50.29-12.3v19.59c1.88.13,7.27.45,14.72.45,9,0,13.42-.37,14.23-.45V286c28.73,1.28,50.18,6.29,50.18,12.28s-21.44,11-50.18,12.27h0Zm0-26.59V266.47h40.09V239.75H755.47v26.72h40.09V284c-32.58,1.49-57.09,7.95-57.09,15.68s24.51,14.19,57.09,15.69v56.15h29V315.34c32.51-1.5,57-7.94,57-15.67s-24.45-14.18-57-15.68h0Zm0,0" transform="translate(-240 -212.5)"/><path class="cls-10" d="M915,412.5a100,100,0,1,0-100-100A99.76,99.76,0,0,0,915,412.5Z" transform="translate(-240 -212.5)"/><path class="cls-4" d="M942.5,328.33c0-14.58-8.75-19.58-26.25-21.66-12.5-1.67-15-5-15-10.84s4.17-9.58,12.5-9.58c7.5,0,11.67,2.5,13.75,8.75a3.14,3.14,0,0,0,2.92,2.08h6.66a2.85,2.85,0,0,0,2.92-2.91v-.42a20.81,20.81,0,0,0-18.75-17.08v-10c0-1.67-1.25-2.92-3.33-3.34h-6.25c-1.67,0-2.92,1.25-3.34,3.34v9.58c-12.5,1.67-20.41,10-20.41,20.42,0,13.75,8.33,19.16,25.83,21.25,11.67,2.08,15.42,4.58,15.42,11.25s-5.84,11.25-13.75,11.25c-10.84,0-14.59-4.59-15.84-10.84a3,3,0,0,0-2.91-2.5h-7.09a2.85,2.85,0,0,0-2.91,2.92v.42c1.66,10.41,8.33,17.91,22.08,20v10c0,1.66,1.25,2.91,3.33,3.33h6.25c1.67,0,2.92-1.25,3.34-3.33v-10c12.5-2.09,20.83-10.84,20.83-22.09Z" transform="translate(-240 -212.5)"/><path class="cls-4" d="M893.75,372.08a62.35,62.35,0,0,1,0-117.08,4.17,4.17,0,0,0,2.5-4.17V245a3.15,3.15,0,0,0-2.5-3.33,2.55,2.55,0,0,0-1.67.41,75,75,0,0,0,0,142.92,2.53,2.53,0,0,0,3.75-1.67c.42-.41.42-.83.42-1.66v-5.84C896.25,374.58,895,372.92,893.75,372.08Zm44.17-130a2.53,2.53,0,0,0-3.75,1.67c-.42.42-.42.83-.42,1.67v5.83a5.54,5.54,0,0,0,2.5,4.17,62.35,62.35,0,0,1,0,117.08,4.17,4.17,0,0,0-2.5,4.17v5.83a3.15,3.15,0,0,0,2.5,3.33,2.55,2.55,0,0,0,1.67-.41,75.31,75.31,0,0,0,0-143.34Z" transform="translate(-240 -212.5)"/><g id="Layer_1-2" data-name="Layer_1"><path class="cls-11" d="M1027,212.5a100,100,0,1,1-100,100A100,100,0,0,1,1027,212.5Z" transform="translate(-240 -212.5)"/><path class="cls-12" d="M1030.69,319.56h38c.81,0,1.2,0,1.25-1.06a70.57,70.57,0,0,0,0-11.63c0-.75-.37-1.06-1.18-1.06H993.12c-.93,0-1.18.31-1.18,1.19v11.12c0,1.44,0,1.44,1.49,1.44Zm35-26.75a1.19,1.19,0,0,0,0-.87,24.06,24.06,0,0,0-2.26-3.94,32,32,0,0,0-4.62-5.81,15.69,15.69,0,0,0-2.88-2.82,45,45,0,0,0-18.75-9.5,46.88,46.88,0,0,0-10.63-1.12H993c-.93,0-1.06.37-1.06,1.19v22.18c0,.94,0,1.19,1.19,1.19h72.12s.63-.13.75-.5Zm0,39.75a14.18,14.18,0,0,0-3.19,0H993.19c-.94,0-1.25,0-1.25,1.25V355.5c0,1,0,1.25,1.25,1.25h32a15.87,15.87,0,0,0,4.56-.31,47.49,47.49,0,0,0,13.56-3,24.54,24.54,0,0,0,4.56-2.12h.44a40.68,40.68,0,0,0,17.44-17.56s.43-.94-.06-1.19ZM979.38,368V333.44c0-.82,0-.94-1-.94H964.81c-.75,0-1.06,0-1.06-1V319.63h14.5c.81,0,1.13,0,1.13-1.06V306.82c0-.76,0-.94-1-.94H964.81c-.75,0-1.06,0-1.06-1v-11c0-.69,0-.87,1-.87h13.44c.93,0,1.19,0,1.19-1.19V258.13c0-1,0-1.25,1.25-1.25h46.87a71.55,71.55,0,0,1,10.12,1.13,61,61,0,0,1,19.57,7.25,54.93,54.93,0,0,1,11,8.5,60,60,0,0,1,6.69,8.31,49.78,49.78,0,0,1,4.88,9.56,1.64,1.64,0,0,0,1.87,1.32h11.19c1.43,0,1.43,0,1.5,1.37v10.25c0,1-.38,1.26-1.38,1.26h-8.63c-.87,0-1.12,0-1.06,1.12a64.28,64.28,0,0,1,0,11.44c0,1.06,0,1.18,1.19,1.18h9.87c.44.57,0,1.13,0,1.7a11.34,11.34,0,0,1,0,2.18V331c0,1.06-.31,1.38-1.25,1.38h-11.81a1.56,1.56,0,0,0-1.81,1.19,50.07,50.07,0,0,1-13.13,19.12,75,75,0,0,1-6.69,5.38c-2.5,1.44-4.93,2.93-7.5,4.12a67.55,67.55,0,0,1-14.75,4.69,77,77,0,0,1-14.63,1.18H979.36V368Z" transform="translate(-240 -212.5)"/></g><text class="cls-13" transform="translate(230.06 110.78)">+</text></svg>