<svg id="Layer_1" data-name="Layer 1" xmlns="http://www.w3.org/2000/svg" xmlns:xlink="http://www.w3.org/1999/xlink" viewBox="0 0 877.16 200.05"><defs><style>.cls-1{fill:none;}.cls-2{fill:#2f3030;}.cls-3{fill:#818283;}.cls-4{fill:#343535;}.cls-5{font-size:48px;stroke:#000;stroke-miterlimit:10;stroke-width:4px;font-family:MyriadPro-Regular, Myriad Pro;}.cls-6,.cls-7{fill:#ff007a;}.cls-18,.cls-7,.cls-8,.cls-9{fill-rule:evenodd;}.cls-8{fill:#50af95;}.cls-10,.cls-9{fill:#fff;}.cls-11{clip-path:url(#clip-path);}.cls-12{fill:url(#linear-gradient);}.cls-13{fill:#0f1023;}.cls-14{fill:#fefefe;}.cls-15{fill:#cf65ae;}.cls-16{fill:#2775ca;}.cls-17{fill:#070a0e;}.cls-18{fill:#00d395;}</style><clipPath id="clip-path" transform="translate(-257.27 -284.6)"><path class="cls-1" d="M767.08,380.81c-3.35-3.26-7.26-6.24-10.24-9.78s-6.14-7.26-9.3-11.08a121.54,121.54,0,0,1-7.83-10.52,71.53,71.53,0,0,1-9.31-18.62,12.13,12.13,0,0,1,0-3.07,1.41,1.41,0,0,1,1.12-.93,2.67,2.67,0,0,1,1.3,1.77c.75,2.51,1.59,4.93,2.52,7.35a86.63,86.63,0,0,0,11.17,18.62c2,2.7,4.28,5.22,6.52,7.73,4.74,5.59,10.14,10.61,15.36,15.73,2.23,2.24,4.65,4.19,7.07,6.24l1.21,1.12c0,2.23,0,2.23-1.77,2.23-2.6-2.14-4.46-3.54-7.82-6.79m-36.86-57.07c-1.12-.47-1.12-2.05-1.12-4.56.37-.47.75-1.31,1.49-1.21s1.12.65,1.58,1.21a14.44,14.44,0,0,0,0,3.35c0,.37-.65,1.12-.65,1.12a3.8,3.8,0,0,1-.89.11l-.41,0M753,288.83a30.36,30.36,0,0,0-8.85,2.6,22.1,22.1,0,0,0-8.47,6.15c-1.86,2.23-3.54,4.75-5.21,7.17l-7.08,9.31c-3.72,5.3-7.54,10.52-11.36,15.82l-6.42,9.31c-3.91,5.4-7.91,10.8-11.73,16.29a26,26,0,0,0-4.75,15.18,32.85,32.85,0,0,0,.84,6.7,47.35,47.35,0,0,0,1.68,7.82,93.43,93.43,0,0,0,5.58,12,89.27,89.27,0,0,0,4.84,8.1q3.54,4.83,7.54,9.31c2,2.51,4.38,5.86,6.06,7.54s3.44,3.35,5,5.21a8,8,0,0,0,2.7,2.24,22,22,0,0,0,10.71-3.54,55.23,55.23,0,0,0,8.19-6.33q6.33-5.78,12.57-11.17a44.89,44.89,0,0,1,9.77-6.8,21.5,21.5,0,0,1,7.54-1.95,13.58,13.58,0,0,1,7.36,1.86,29.26,29.26,0,0,1,7.63,6.7c3.91,4.94,7.45,10.06,11.55,14.8a40.13,40.13,0,0,0,13.31,11.08,19.56,19.56,0,0,0,20-.09,47.85,47.85,0,0,0,9.31-7.35,12.12,12.12,0,0,0,2.14-2.7,2.91,2.91,0,0,0-2.52-.84,4.21,4.21,0,0,1-1.86-1.21,1.59,1.59,0,0,1,.65-2,7.21,7.21,0,0,1,2.7,0,12.61,12.61,0,0,0,3.73.93,33,33,0,0,1,3-4.09,1.87,1.87,0,0,0,.56-1.21c-.37-.75-1.3-.75-1.86-.75a138.79,138.79,0,0,1-15.27-4.84c-4.46-1.67-8.75-3.63-12.94-5.68a129.56,129.56,0,0,1-13.22-7.26l-5-3.16c-4.1-2.52-8.1-5.22-11.92-8.1-2.14-1.49-4-3.17-6.14-4.66a47.13,47.13,0,0,1-4.1-3.35,166.19,166.19,0,0,1-18.62-18.62,110.73,110.73,0,0,1-10.52-13.22,108.45,108.45,0,0,1-9.31-16.29,44.29,44.29,0,0,1-3.26-11,38.33,38.33,0,0,1,0-5.67,16,16,0,0,1,4.75-12.29,14,14,0,0,1,5.59-3.63,41.19,41.19,0,0,1,8.28-1.87,76.1,76.1,0,0,1,9.31,0c1.56.18,3.12.43,4.66.75a54.6,54.6,0,0,1,7.91,1.4,20.61,20.61,0,0,0,4.47,1c5,1.68,9.59,3,14.89,5.21S808,308.38,813,311.08a197.27,197.27,0,0,1,21.32,13.31c3.91,2.7,8.84,6.42,11.45,8.47s4.93,4.38,7.45,6.52a142.55,142.55,0,0,1,11.45,11.08,133,133,0,0,1,12.57,15.26,116.36,116.36,0,0,1,10.61,16h1.3c2.14.37,4.29,1.11,6.33,1.67a80,80,0,0,0-6.05-12.84,42.28,42.28,0,0,0-3.81-6.15c-3.26-4-6.24-8-9.31-11.82a140.08,140.08,0,0,0-10.06-10.89,101.64,101.64,0,0,0-9.31-8.66c-2.88-2.24-5.58-4.75-8.47-7.08-5.87-4.47-11.82-8.93-18.15-12.84A115,115,0,0,0,817,305.31a63.66,63.66,0,0,0-6.6-3.45c-5.22-2.14-9.6-4.37-14.53-6.24a113.65,113.65,0,0,0-13.41-4.28,102.16,102.16,0,0,0-18.8-3.07h-5.87a20,20,0,0,0-4.74.57"/></clipPath><linearGradient id="linear-gradient" x1="583.88" y1="484.14" x2="585.06" y2="484.14" gradientTransform="translate(61683.07 -73743.02) rotate(90) scale(126.3)" gradientUnits="userSpaceOnUse"><stop offset="0" stop-color="#29afe5"/><stop offset="0.28" stop-color="#6a92cf"/><stop offset="0.63" stop-color="#b770b6"/><stop offset="0.88" stop-color="#e75aa6"/><stop offset="1" stop-color="#fa52a0"/></linearGradient></defs><polygon class="cls-2" points="61.47 149.95 61.47 200.03 122.94 113.69 61.47 149.95"/><polygon points="61.47 74.09 61.47 138.37 122.94 102.01 61.47 74.09"/><polygon class="cls-2" points="61.47 0.03 61.47 74.09 122.94 102.01 61.47 0.03"/><polygon class="cls-3" points="61.47 149.95 61.47 200.03 0 113.69 61.47 149.95"/><polygon class="cls-4" points="61.47 74.09 61.47 138.37 0 102.01 61.47 74.09"/><polygon class="cls-3" points="61.47 0.03 61.47 74.09 0 102.01 61.47 0.03"/><text class="cls-5" transform="translate(180.31 112.07)">+</text><path class="cls-6" d="M554.61,330.12c-2.17-.31-2.27-.41-1.24-.52a34.14,34.14,0,0,1,9.7.83c7.42,1.75,14.13,6.29,21.24,14.23l1.86,2.17,2.68-.41a57.48,57.48,0,0,1,33,4.12c2.68,1.24,6.91,3.71,7.42,4.33a10,10,0,0,1,.73,2.89c.72,4.85.41,8.46-1.14,11.24-.82,1.55-.82,2-.31,3.31a3.12,3.12,0,0,0,2.79,1.75c2.47,0,5-3.92,6.29-9.39l.52-2.16.92,1c5.26,5.88,9.39,14,10,19.8l.21,1.55-.93-1.34a17.46,17.46,0,0,0-5-5.26c-3.51-2.37-7.22-3.1-17-3.61-8.87-.52-13.93-1.24-18.88-2.89-8.46-2.79-12.79-6.4-22.79-19.7a94.57,94.57,0,0,0-10-11.76C568.63,334.45,562.55,331.36,554.61,330.12Z" transform="translate(-257.27 -284.6)"/><path class="cls-6" d="M631.45,330.17c.21-3.92.72-6.49,1.86-8.87a6.66,6.66,0,0,1,.93-1.75,4,4,0,0,1-.42,1.55,19.69,19.69,0,0,0-.41,9.07c.72,4.65,1,5.26,6,10.32,2.27,2.37,5,5.36,6,6.6l1.75,2.27-1.75-1.65a63.34,63.34,0,0,0-8.26-6.5c-.72-.41-.82-.41-1.34.1s-.51,1-.51,4c-.11,4.64-.72,7.53-2.27,10.52-.83,1.54-.93,1.23-.21-.52.52-1.34.62-2,.62-6.39,0-9-1-11.14-7.32-14.75-1.55-.93-4.23-2.27-5.78-3a22.37,22.37,0,0,1-2.78-1.35c.2-.2,6.29,1.55,8.66,2.58,3.61,1.45,4.23,1.55,4.64,1.45C631.14,333.58,631.35,332.75,631.45,330.17Z" transform="translate(-257.27 -284.6)"/><path class="cls-6" d="M558.84,358.59c-4.34-6-7.12-15.27-6.5-22.18l.2-2.17,1,.21a24.29,24.29,0,0,1,6.6,2.48c4.12,2.47,6,5.88,7.73,14.33.52,2.48,1.24,5.37,1.55,6.3a37.72,37.72,0,0,0,4.13,7.42c1.13,1.65.41,2.48-2.17,2.27C567.5,366.84,562.24,363.23,558.84,358.59Z" transform="translate(-257.27 -284.6)"/><path class="cls-6" d="M626.19,390.41C605.77,382.16,598.55,375,598.55,363c0-1.75.1-3.19.1-3.19a19.12,19.12,0,0,1,1.75,1.34c4.13,3.3,8.77,4.74,21.66,6.6,7.53,1.13,11.87,2,15.79,3.3,12.48,4.13,20.21,12.58,22.07,24a41.79,41.79,0,0,1-.62,12.9c-.72,2.57-2.78,7.32-3.3,7.42-.1,0-.31-.51-.31-1.34a16.77,16.77,0,0,0-6-11.65C645.38,398.66,639.81,395.88,626.19,390.41Z" transform="translate(-257.27 -284.6)"/><path class="cls-6" d="M611.75,393.81a25,25,0,0,0-1-4.33l-.52-1.54.93,1.13a18.21,18.21,0,0,1,3.3,6c.72,2,.72,2.58.72,5.78s-.1,3.82-.72,5.57a18.75,18.75,0,0,1-4.33,6.91c-3.71,3.82-8.56,5.88-15.47,6.81-1.24.1-4.75.41-7.84.62-7.74.41-12.89,1.23-17.54,2.88-.62.21-1.23.42-1.34.31s3-2.06,5.57-3.3c3.61-1.75,7.33-2.68,15.47-4.12a70.81,70.81,0,0,0,9.18-1.86C608.35,411.45,613.4,403.51,611.75,393.81Z" transform="translate(-257.27 -284.6)"/><path class="cls-6" d="M621.14,410.42q-4-8.82-1.86-16.71c.21-.51.41-1,.62-1a4.54,4.54,0,0,1,1.44.72c1.24.83,3.82,2.27,10.42,5.88,8.36,4.54,13.1,8.05,16.4,12.07a25.55,25.55,0,0,1,5.47,12.48,41.13,41.13,0,0,1-.52,12.27c-2.27,8.77-7.42,15.79-15,19.81a14.49,14.49,0,0,1-2.17,1,8.35,8.35,0,0,1,.93-2.27,20.53,20.53,0,0,0,.93-16c-1.14-3.5-3.51-7.73-8.26-14.85C623.92,415.58,622.58,413.41,621.14,410.42Z" transform="translate(-257.27 -284.6)"/><path class="cls-6" d="M544.29,455c7.64-6.4,17-10.94,25.69-12.38a38.12,38.12,0,0,1,13.3.52c5.47,1.44,10.42,4.53,13,8.35s3.61,6.91,4.74,14c.42,2.78.93,5.67,1,6.29.83,3.71,2.48,6.6,4.54,8.15,3.2,2.37,8.77,2.47,14.24.41a6.44,6.44,0,0,1,1.75-.51c.21.2-2.58,2.06-4.43,3a14.64,14.64,0,0,1-7.43,1.75c-5,0-9.18-2.58-12.59-7.73a60,60,0,0,1-3.4-6.81c-3.61-8.36-5.47-10.83-9.69-13.62-3.72-2.37-8.46-2.89-12.07-1.13a7.76,7.76,0,0,0-2.68,12.07,10.57,10.57,0,0,0,5.87,3.09,6.29,6.29,0,0,0,7.12-6.29c0-2.48-.93-3.92-3.4-5.06-3.3-1.44-6.91.21-6.81,3.41a2.83,2.83,0,0,0,2,2.78c.83.42.83.42.21.31-3-.62-3.72-4.33-1.34-6.7,2.88-2.89,9-1.65,11,2.37a10.78,10.78,0,0,1,.21,7c-1.76,4.54-6.71,6.91-11.76,5.57-3.4-.92-4.85-1.85-9-6.08-7.22-7.43-10-8.87-20.32-10.42l-2-.31Z" transform="translate(-257.27 -284.6)"/><path class="cls-7" d="M490,289.07c24,29.19,61.06,74.57,62.92,77.05,1.54,2.06.93,4-1.65,5.46a15.75,15.75,0,0,1-5.88,1.65,7.44,7.44,0,0,1-4.95-2.16c-.93-.93-5-6.81-14-20.94-6.91-10.83-12.79-19.81-12.89-19.91-.42-.2-.42-.2,12.17,22.28,7.94,14.13,10.52,19.19,10.52,19.81,0,1.34-.42,2.06-2.07,3.91-2.78,3.1-4,6.61-4.95,13.93-1,8.15-3.81,13.92-11.76,23.72-4.64,5.78-5.36,6.81-6.49,9.18a17.43,17.43,0,0,0-2.07,8.25,26,26,0,0,0,1.34,10.11c1,3.3,2.17,5.47,5,9.7,2.37,3.71,3.81,6.5,3.81,7.53,0,.82.21.82,3.92,0,8.87-2.06,16.2-5.57,20.22-9.9,2.47-2.69,3.09-4.13,3.09-7.84a8.43,8.43,0,0,0-.72-4.34c-1-2.26-3-4.12-7.22-7-5.57-3.82-7.94-6.91-8.56-11-.52-3.5.1-5.87,3.2-12.37,3.19-6.71,4-9.49,4.53-16.3.31-4.33.83-6.09,2.07-7.43s2.47-2,5.67-2.37c5.26-.72,8.67-2.06,11.35-4.64a9.69,9.69,0,0,0,3.5-7.53l.11-2.37-1.34-1.45c-4.85-5.57-72-79.42-72.31-79.42C486.43,284.63,488.08,286.59,490,289.07ZM521.7,435.74a4.24,4.24,0,0,0-1.34-5.67c-1.75-1.14-4.43-.62-4.43.93a1,1,0,0,0,.82,1c.93.51,1,1,.31,2.16s-.72,2.17.21,2.89C518.71,438.22,520.67,437.6,521.7,435.74Z" transform="translate(-257.27 -284.6)"/><path class="cls-7" d="M563.48,381.49a9.13,9.13,0,0,0-5.57,6.08c-.41,1.65-.21,4.64.51,5.57,1.14,1.44,2.17,1.86,5.06,1.86,5.67,0,10.52-2.48,11-5.47.52-2.48-1.65-5.88-4.64-7.43A10.47,10.47,0,0,0,563.48,381.49Zm6.6,5.15c.82-1.24.51-2.58-1-3.5-2.79-1.76-7-.31-7,2.37,0,1.34,2.17,2.78,4.23,2.78A5.69,5.69,0,0,0,570.08,386.64Z" transform="translate(-257.27 -284.6)"/><path class="cls-8" d="M612.62,285.61,570.7,373.67a1.71,1.71,0,0,0,.37,2L684.29,484.15a1.73,1.73,0,0,0,2.39,0L799.9,375.67a1.71,1.71,0,0,0,.36-2l-41.92-88.06a1.71,1.71,0,0,0-1.54-1H614.18a1.7,1.7,0,0,0-1.56,1Z" transform="translate(-257.27 -284.6)"/><path class="cls-9" d="M700,382.71h0c-.81.06-5,.31-14.38.31-7.45,0-12.74-.22-14.6-.31h0c-28.79-1.27-50.28-6.28-50.28-12.28s21.49-11,50.28-12.29v19.58c1.88.13,7.28.45,14.73.45,8.94,0,13.42-.37,14.22-.44V358.15c28.73,1.28,50.18,6.29,50.18,12.28s-21.44,11-50.18,12.27h0Zm0-26.58V338.6h40.1V311.88H631V338.6H671v17.52c-32.58,1.5-57.09,7.95-57.09,15.69S638.46,386,671,387.49v56.16h29V387.47c32.51-1.49,57-7.94,57-15.67s-24.45-14.18-57-15.68h0Zm0,0" transform="translate(-257.27 -284.6)"/><path class="cls-10" d="M826,484.5c-20,.57-36.82-6.32-53-14.39a203.86,203.86,0,0,1-57.61-42.52c-10.92-11.56-20.33-24.11-26.34-39.13-5.79-14.45-4.31-27.16,5.16-39.68,12.73-16.83,24.3-34.54,37.09-51.32,8.57-11.24,21.49-14.09,34.69-12.31,35.1,4.72,64.47,21.68,91,44.31,15.56,13.26,28.75,28.23,38.05,46.66,8.47,16.78,8.14,32-3.87,47.18-11.32,14.31-22.21,29-32.13,44.32-8.41,13-19.64,18-33.1,16.88" transform="translate(-257.27 -284.6)"/><g class="cls-11"><rect class="cls-12" x="431.85" y="3.66" width="206.34" height="148.93"/></g><path class="cls-13" d="M846.5,420.56a32.53,32.53,0,0,1,2.79-4.1,1.85,1.85,0,0,0,.56-1.21h1.58a58.69,58.69,0,0,0,14,1.77,35.28,35.28,0,0,0,13.87-1.77A16.54,16.54,0,0,0,890.06,404a24.83,24.83,0,0,0,0-12.29,57.3,57.3,0,0,0-3-9.31c0-.65.83-.47,1.3,0,2.14,0,4.28,1.12,6.33,1.67a42.22,42.22,0,0,1,2.33,8,35.06,35.06,0,0,1,0,10.33A23,23,0,0,1,892.58,414c-13.13,18.62-26.35,36.68-39.48,55.11a27,27,0,0,1-15.64,10.62,48.64,48.64,0,0,1-15.17,1.11,60.27,60.27,0,0,1-9.87-1.11A116.17,116.17,0,0,1,800,476.6a165.5,165.5,0,0,1-31.28-13.4,209.48,209.48,0,0,1-24.77-15.92,197.45,197.45,0,0,1-18.62-15.92c-.55-.56-1.21-.93-1.49-1.68a21.8,21.8,0,0,0,10.71-3.54,53.92,53.92,0,0,0,8.19-6.33q6.33-5.67,12.57-11.17a44.67,44.67,0,0,1,9.78-6.79,21.4,21.4,0,0,1,7.54-2,13.61,13.61,0,0,1,7.35,1.86,29.49,29.49,0,0,1,7.64,6.7c3.91,4.94,7.44,10.06,11.54,14.81a40.48,40.48,0,0,0,12.94,11A22.09,22.09,0,0,0,825,436a21.62,21.62,0,0,0,7.35-2.61,47.26,47.26,0,0,0,9.31-7.35,11.94,11.94,0,0,0,2.15-2.7c1.11,0,2.14.56,3.16,0a2.12,2.12,0,0,0,1.12-1.77,2.22,2.22,0,0,0-1.58-1m5.4,1.3c-1.4,1.68-1.22,2.42,0,2.89a5.65,5.65,0,0,0,1.3,0l5.4.65a50.85,50.85,0,0,0,10.61,0c1.4,0,3.07,0,4.28-1a1.86,1.86,0,0,0-1-2.43,71.6,71.6,0,0,1-20.57-.09" transform="translate(-257.27 -284.6)"/><path class="cls-14" d="M887.18,382.48a57.33,57.33,0,0,1,3,9.31,25.06,25.06,0,0,1,0,12.29,16.56,16.56,0,0,1-10.8,11.26,35.31,35.31,0,0,1-13.87,1.77,58.26,58.26,0,0,1-14-1.77h-1.58c0-.65-1.3-.65-1.86-.74a140.26,140.26,0,0,1-15.27-4.84c-4.47-1.68-8.75-3.63-12.94-5.68a130.44,130.44,0,0,1-13.22-7.26l-5-3.17c-4.09-2.51-8.1-5.21-11.91-8.1-2.14-1.49-4-3.16-6.15-4.65a47,47,0,0,1-4.09-3.35,166.19,166.19,0,0,1-18.62-18.62,109.74,109.74,0,0,1-10.52-13.22A107.59,107.59,0,0,1,741,329.42a44.13,44.13,0,0,1-3.45-10.62,38.33,38.33,0,0,1,0-5.67,15.92,15.92,0,0,1,4.84-12,14.1,14.1,0,0,1,5.59-3.63,41.35,41.35,0,0,1,8.28-1.87,76.1,76.1,0,0,1,9.31,0,49,49,0,0,1,5.12.75,55.85,55.85,0,0,1,7.92,1.39,14.76,14.76,0,0,1,4.47,1c5,1.67,10,3.16,14.89,5.21s10.52,4.66,15.55,7.36A194.67,194.67,0,0,1,835,324.67c3.91,2.7,7.64,5.59,11.46,8.47s4.93,4.38,7.44,6.52a139.24,139.24,0,0,1,11.45,11.08,132.43,132.43,0,0,1,11.83,15,117.47,117.47,0,0,1,10,16.76M840.63,386a11.6,11.6,0,0,0,4.93-.56,7.37,7.37,0,0,0,5.78-5.12,11.19,11.19,0,0,0,0-5.21A30,30,0,0,0,847,364.79a67.53,67.53,0,0,0-12.47-14.71,85.61,85.61,0,0,0-7-6.05,90.75,90.75,0,0,0-13.12-8.75,79.81,79.81,0,0,0-17.13-7.35,44.09,44.09,0,0,0-7.64-1.4,23.81,23.81,0,0,0-7.72,0,8.19,8.19,0,0,0-6.33,8.29,31.46,31.46,0,0,0,2.88,9.31,60.31,60.31,0,0,0,10.71,14.61,99.37,99.37,0,0,0,13.59,11.83,96.49,96.49,0,0,0,14.15,8.65A65.73,65.73,0,0,0,830,384.34a43.35,43.35,0,0,0,10.8,1.68Z" transform="translate(-257.27 -284.6)"/><path class="cls-15" d="M840.82,387a43.58,43.58,0,0,1-10.15-1.67,66.33,66.33,0,0,1-13.13-5.12,96.56,96.56,0,0,1-14.8-8.66,99.3,99.3,0,0,1-13.59-11.82,60.34,60.34,0,0,1-10.43-14.25,31.28,31.28,0,0,1-2.88-9.31,8.18,8.18,0,0,1,6.33-8.28,23.81,23.81,0,0,1,7.72,0,44.06,44.06,0,0,1,7.64,1.39,80.57,80.57,0,0,1,17.13,7.36,89.13,89.13,0,0,1,13.12,8.75,85.61,85.61,0,0,1,7,6.05,67.3,67.3,0,0,1,12.47,14.71,30,30,0,0,1,4.38,10.33,11.23,11.23,0,0,1,0,5.22,7.37,7.37,0,0,1-5.78,5.12,11.5,11.5,0,0,1-5,.18" transform="translate(-257.27 -284.6)"/><path class="cls-16" d="M909.43,484.6a100,100,0,1,0-100-100A99.76,99.76,0,0,0,909.43,484.6Z" transform="translate(-257.27 -284.6)"/><path class="cls-10" d="M936.93,400.44c0-14.59-8.75-19.59-26.25-21.67-12.5-1.67-15-5-15-10.83s4.17-9.59,12.5-9.59c7.5,0,11.67,2.5,13.75,8.75a3.15,3.15,0,0,0,2.92,2.09h6.66a2.85,2.85,0,0,0,2.92-2.92v-.42a20.82,20.82,0,0,0-18.75-17.08v-10c0-1.67-1.25-2.92-3.33-3.33H906.1c-1.67,0-2.92,1.25-3.34,3.33v9.58c-12.5,1.67-20.41,10-20.41,20.42,0,13.75,8.33,19.17,25.83,21.25,11.67,2.08,15.42,4.58,15.42,11.25s-5.84,11.25-13.75,11.25c-10.84,0-14.59-4.58-15.84-10.83a3,3,0,0,0-2.91-2.5H884a2.84,2.84,0,0,0-2.91,2.91v.42c1.66,10.42,8.33,17.92,22.08,20v10c0,1.67,1.25,2.92,3.33,3.33h6.25c1.67,0,2.92-1.25,3.34-3.33v-10c12.5-2.08,20.83-10.83,20.83-22.08Z" transform="translate(-257.27 -284.6)"/><path class="cls-10" d="M888.18,444.19a62.36,62.36,0,0,1,0-117.09,4.17,4.17,0,0,0,2.5-4.16V317.1a3.17,3.17,0,0,0-2.5-3.33,2.5,2.5,0,0,0-1.67.42,75,75,0,0,0,0,142.91,2.53,2.53,0,0,0,3.75-1.66c.42-.42.42-.84.42-1.67v-5.83C890.68,446.69,889.43,445,888.18,444.19Zm44.17-130a2.53,2.53,0,0,0-3.75,1.66c-.42.42-.42.84-.42,1.67v5.83a5.52,5.52,0,0,0,2.5,4.17,62.35,62.35,0,0,1,0,117.08,4.19,4.19,0,0,0-2.5,4.17v5.83a3.17,3.17,0,0,0,2.5,3.34,2.5,2.5,0,0,0,1.67-.42,75.3,75.3,0,0,0,0-143.33Z" transform="translate(-257.27 -284.6)"/><path class="cls-17" d="M1034.43,484.63a100,100,0,1,0-100-100A100,100,0,0,0,1034.43,484.63Z" transform="translate(-257.27 -284.6)"/><path class="cls-18" d="M992.2,418.16a10.07,10.07,0,0,1-4.82-8.58V390a4.21,4.21,0,0,1,6.32-3.62l44.09,25.71a8.38,8.38,0,0,1,4.17,7.25v20.24a5,5,0,0,1-5,5,5.11,5.11,0,0,1-2.64-.74Zm65.72-37.09a8.42,8.42,0,0,1,4.17,7.25V429.4a3.34,3.34,0,0,1-1.71,2.92l-9.65,5.43a1.68,1.68,0,0,1-.39.16V415.1a8.4,8.4,0,0,0-4.09-7.21l-38.72-23.16V359a4.21,4.21,0,0,1,6.32-3.62Zm19.3-30.34a8.39,8.39,0,0,1,4.18,7.26v60a3.4,3.4,0,0,1-1.77,2.95l-9.15,4.94V384.11a8.41,8.41,0,0,0-4.07-7.2l-39.58-23.74V328.75a4.32,4.32,0,0,1,.56-2.11,4.21,4.21,0,0,1,5.74-1.52Z" transform="translate(-257.27 -284.6)"/></svg>