<svg id="Layer_1" data-name="Layer 1" xmlns="http://www.w3.org/2000/svg" xmlns:xlink="http://www.w3.org/1999/xlink" viewBox="0 0 852.47 200.05"><defs><style>.cls-1{fill:none;}.cls-2{fill:#2f3030;}.cls-3{fill:#818283;}.cls-4{fill:#343535;}.cls-5{font-size:48px;stroke:#000;stroke-miterlimit:10;stroke-width:4px;font-family:MyriadPro-Regular, Myriad Pro;}.cls-6,.cls-7{fill:#ff007a;}.cls-18,.cls-7,.cls-8,.cls-9{fill-rule:evenodd;}.cls-8{fill:#50af95;}.cls-10,.cls-9{fill:#fff;}.cls-11{clip-path:url(#clip-path);}.cls-12{fill:url(#linear-gradient);}.cls-13{fill:#0f1023;}.cls-14{fill:#fefefe;}.cls-15{fill:#cf65ae;}.cls-16{fill:#2775ca;}.cls-17{fill:#070a0e;}.cls-18{fill:#00d395;}</style><clipPath id="clip-path" transform="translate(-257.27 -284.1)"><path class="cls-1" d="M742.39,380.31c-3.35-3.26-7.26-6.24-10.24-9.78s-6.15-7.26-9.31-11.08A123.53,123.53,0,0,1,715,348.93a71.22,71.22,0,0,1-9.31-18.62,11.27,11.27,0,0,1,0-3.07,1.41,1.41,0,0,1,1.12-.93,2.7,2.7,0,0,1,1.3,1.77c.74,2.51,1.58,4.93,2.51,7.35a86.67,86.67,0,0,0,11.18,18.62c2,2.7,4.28,5.22,6.51,7.73,4.75,5.59,10.15,10.61,15.36,15.73,2.24,2.24,4.66,4.19,7.08,6.24l1.21,1.12c0,2.23,0,2.23-1.77,2.23a100.48,100.48,0,0,1-7.82-6.79m-36.87-57.07c-1.11-.47-1.11-2.05-1.11-4.56.37-.47.74-1.31,1.49-1.21s1.11.65,1.58,1.21a13.41,13.41,0,0,0,0,3.35c0,.37-.65,1.12-.65,1.12a3.89,3.89,0,0,1-.9.11l-.41,0m22.81-34.91a30.3,30.3,0,0,0-8.84,2.6,22,22,0,0,0-8.47,6.15c-1.87,2.23-3.54,4.75-5.22,7.17l-7.07,9.31c-3.73,5.3-7.54,10.52-11.36,15.82L681,338.69c-3.91,5.4-7.92,10.8-11.73,16.29a26,26,0,0,0-4.75,15.18,32.85,32.85,0,0,0,.84,6.7,46.32,46.32,0,0,0,1.67,7.82,94.86,94.86,0,0,0,5.59,12,87,87,0,0,0,4.84,8.1q3.54,4.83,7.54,9.31c2,2.51,4.37,5.86,6,7.54s3.45,3.35,5,5.21a7.91,7.91,0,0,0,2.7,2.24,22,22,0,0,0,10.7-3.54,55.31,55.31,0,0,0,8.2-6.33q6.33-5.78,12.56-11.17a45,45,0,0,1,9.78-6.8,21.44,21.44,0,0,1,7.54-1.95,13.53,13.53,0,0,1,7.35,1.86,29.31,29.31,0,0,1,7.64,6.7c3.91,4.94,7.45,10.06,11.54,14.8a40.26,40.26,0,0,0,13.32,11.08A22.17,22.17,0,0,0,800,436.26a21.91,21.91,0,0,0,7.35-2.61,47.26,47.26,0,0,0,9.31-7.35,12.12,12.12,0,0,0,2.14-2.7,2.88,2.88,0,0,0-2.51-.84,4.16,4.16,0,0,1-1.86-1.21,1.58,1.58,0,0,1,.65-2,7.21,7.21,0,0,1,2.7,0,12.62,12.62,0,0,0,3.72.93,33.13,33.13,0,0,1,3-4.09,1.87,1.87,0,0,0,.56-1.21c-.37-.75-1.3-.75-1.86-.75a138.11,138.11,0,0,1-15.27-4.84C803.46,408,799.18,406,795,404a128.5,128.5,0,0,1-13.22-7.26l-5-3.16c-4.09-2.52-8.1-5.22-11.91-8.1-2.15-1.49-4-3.17-6.15-4.66a47,47,0,0,1-4.09-3.35A165.35,165.35,0,0,1,736,358.8a109.74,109.74,0,0,1-10.52-13.22,107.59,107.59,0,0,1-9.31-16.29,43.87,43.87,0,0,1-3.26-11,38.32,38.32,0,0,1,0-5.67,15.89,15.89,0,0,1,4.75-12.29,14,14,0,0,1,5.58-3.63,41.29,41.29,0,0,1,8.29-1.87,76.1,76.1,0,0,1,9.31,0q2.34.27,4.65.75a54.73,54.73,0,0,1,7.92,1.4,20.53,20.53,0,0,0,4.46,1c5,1.68,9.59,3,14.9,5.21s10.52,4.66,15.55,7.36a196.17,196.17,0,0,1,21.31,13.31c3.91,2.7,8.85,6.42,11.46,8.47s4.93,4.38,7.44,6.52A140.9,140.9,0,0,1,840,350a132,132,0,0,1,12.57,15.26,114.57,114.57,0,0,1,10.61,16h1.31c2.14.37,4.28,1.11,6.33,1.67a80.88,80.88,0,0,0-6-12.84,42.34,42.34,0,0,0-3.82-6.15c-3.26-4-6.24-8-9.31-11.82a140,140,0,0,0-10.05-10.89,101.64,101.64,0,0,0-9.31-8.66c-2.89-2.24-5.59-4.75-8.47-7.08-5.87-4.47-11.83-8.93-18.16-12.84a114,114,0,0,0-13.31-7.82,62.82,62.82,0,0,0-6.61-3.45c-5.21-2.14-9.59-4.37-14.52-6.24a114.24,114.24,0,0,0-13.41-4.28,102.16,102.16,0,0,0-18.8-3.07h-5.87a20,20,0,0,0-4.75.57"/></clipPath><linearGradient id="linear-gradient" x1="583.88" y1="484.33" x2="585.05" y2="484.33" gradientTransform="translate(61683.07 -73742.52) rotate(90) scale(126.3)" gradientUnits="userSpaceOnUse"><stop offset="0" stop-color="#29afe5"/><stop offset="0.28" stop-color="#6a92cf"/><stop offset="0.63" stop-color="#b770b6"/><stop offset="0.88" stop-color="#e75aa6"/><stop offset="1" stop-color="#fa52a0"/></linearGradient></defs><polygon class="cls-2" points="61.47 149.95 61.47 200.03 122.94 113.69 61.47 149.95"/><polygon points="61.47 74.09 61.47 138.37 122.94 102.01 61.47 74.09"/><polygon class="cls-2" points="61.47 0.03 61.47 74.09 122.94 102.01 61.47 0.03"/><polygon class="cls-3" points="61.47 149.95 61.47 200.03 0 113.69 61.47 149.95"/><polygon class="cls-4" points="61.47 74.09 61.47 138.37 0 102.01 61.47 74.09"/><polygon class="cls-3" points="61.47 0.03 61.47 74.09 0 102.01 61.47 0.03"/><text class="cls-5" transform="translate(155.61 112.07)">+</text><path class="cls-6" d="M529.91,329.62c-2.16-.31-2.27-.41-1.24-.52a34.14,34.14,0,0,1,9.7.83c7.43,1.75,14.13,6.29,21.25,14.23l1.86,2.17,2.68-.41a57.45,57.45,0,0,1,33,4.12c2.69,1.24,6.91,3.71,7.43,4.33a9.72,9.72,0,0,1,.72,2.89c.72,4.85.41,8.46-1.13,11.24-.83,1.55-.83,2-.31,3.31a3.1,3.1,0,0,0,2.78,1.75c2.48,0,5.06-3.92,6.3-9.39l.51-2.16.93,1c5.26,5.88,9.39,14,10,19.8l.21,1.55-.93-1.34a17.34,17.34,0,0,0-4.95-5.26c-3.51-2.37-7.22-3.1-17-3.61-8.87-.52-13.92-1.24-18.87-2.89-8.46-2.79-12.79-6.4-22.8-19.7a94.68,94.68,0,0,0-10-11.76C543.94,334,537.85,330.86,529.91,329.62Z" transform="translate(-257.27 -284.1)"/><path class="cls-6" d="M606.76,329.67a22.31,22.31,0,0,1,1.85-8.87,7.4,7.4,0,0,1,.93-1.75,3.87,3.87,0,0,1-.41,1.55,19.55,19.55,0,0,0-.41,9.07c.72,4.65,1,5.26,6,10.32,2.27,2.37,4.95,5.36,6,6.6l1.75,2.27-1.75-1.65a64,64,0,0,0-8.25-6.5c-.72-.41-.83-.41-1.34.1s-.52,1-.52,4c-.1,4.64-.72,7.53-2.27,10.52-.82,1.54-.92,1.23-.2-.52.51-1.34.62-2,.62-6.39,0-9-1-11.14-7.33-14.75-1.54-.93-4.23-2.27-5.77-3a24.1,24.1,0,0,1-2.79-1.35c.21-.2,6.29,1.55,8.67,2.58,3.61,1.45,4.22,1.55,4.64,1.45C606.45,333.08,606.65,332.25,606.76,329.67Z" transform="translate(-257.27 -284.1)"/><path class="cls-6" d="M534.14,358.09c-4.33-6-7.12-15.27-6.5-22.18l.21-2.17,1,.21a24,24,0,0,1,6.6,2.48c4.13,2.47,6,5.88,7.74,14.33.51,2.48,1.24,5.37,1.55,6.3a37.09,37.09,0,0,0,4.12,7.42c1.14,1.65.41,2.48-2.16,2.27C542.81,366.34,537.55,362.73,534.14,358.09Z" transform="translate(-257.27 -284.1)"/><path class="cls-6" d="M601.5,389.91c-20.43-8.25-27.65-15.37-27.65-27.44,0-1.75.11-3.19.11-3.19a20.8,20.8,0,0,1,1.75,1.34c4.13,3.3,8.77,4.74,21.66,6.6,7.53,1.13,11.86,2,15.78,3.3,12.48,4.13,20.22,12.58,22.07,24a41.78,41.78,0,0,1-.61,12.9c-.73,2.57-2.79,7.32-3.3,7.42-.11,0-.31-.51-.31-1.34a16.79,16.79,0,0,0-6-11.65C620.68,398.16,615.11,395.38,601.5,389.91Z" transform="translate(-257.27 -284.1)"/><path class="cls-6" d="M587.06,393.31a24.86,24.86,0,0,0-1-4.33l-.51-1.54.93,1.13a18.21,18.21,0,0,1,3.3,6c.72,2,.72,2.58.72,5.78s-.1,3.82-.72,5.57a18.75,18.75,0,0,1-4.33,6.91c-3.72,3.82-8.57,5.88-15.48,6.81-1.23.1-4.74.41-7.84.62-7.73.41-12.89,1.23-17.53,2.88-.62.21-1.24.42-1.34.31s3-2.06,5.57-3.3c3.61-1.75,7.32-2.68,15.47-4.12a71.2,71.2,0,0,0,9.18-1.86C583.65,411,588.71,403,587.06,393.31Z" transform="translate(-257.27 -284.1)"/><path class="cls-6" d="M596.44,409.92q-4-8.82-1.85-16.71c.2-.51.41-1,.61-1a4.46,4.46,0,0,1,1.45.72c1.24.83,3.81,2.27,10.42,5.88,8.35,4.54,13.1,8.05,16.4,12.07a25.54,25.54,0,0,1,5.46,12.48,40.79,40.79,0,0,1-.51,12.27c-2.27,8.77-7.43,15.79-15,19.81a13.55,13.55,0,0,1-2.17,1,8.35,8.35,0,0,1,.93-2.27,20.44,20.44,0,0,0,.93-16c-1.13-3.5-3.51-7.73-8.25-14.85C599.23,415.08,597.89,412.91,596.44,409.92Z" transform="translate(-257.27 -284.1)"/><path class="cls-6" d="M519.6,454.53c7.63-6.4,17-10.94,25.68-12.38a38.18,38.18,0,0,1,13.31.52c5.46,1.44,10.41,4.53,13,8.35s3.61,6.91,4.75,14c.41,2.78.93,5.67,1,6.29.82,3.71,2.48,6.6,4.54,8.15,3.2,2.37,8.77,2.47,14.23.41a6.46,6.46,0,0,1,1.76-.51c.2.2-2.58,2.06-4.44,3a14.61,14.61,0,0,1-7.43,1.75c-4.95,0-9.18-2.58-12.58-7.73a58.38,58.38,0,0,1-3.4-6.81c-3.61-8.36-5.47-10.83-9.7-13.62-3.71-2.37-8.46-2.89-12.07-1.13a7.77,7.77,0,0,0-2.68,12.07,10.6,10.6,0,0,0,5.88,3.09,6.29,6.29,0,0,0,7.12-6.29c0-2.48-.93-3.92-3.41-5.06-3.3-1.44-6.91.21-6.8,3.41a2.82,2.82,0,0,0,2,2.78c.82.42.82.42.2.31-3-.62-3.71-4.33-1.34-6.7,2.89-2.89,9-1.65,11,2.37a10.78,10.78,0,0,1,.2,7c-1.75,4.54-6.7,6.91-11.75,5.57-3.41-.92-4.85-1.85-9-6.08-7.22-7.43-10-8.87-20.32-10.42l-2-.31Z" transform="translate(-257.27 -284.1)"/><path class="cls-7" d="M465.34,288.57c24,29.19,61.07,74.57,62.92,77.05,1.55,2.06.93,4-1.65,5.46a15.64,15.64,0,0,1-5.88,1.65,7.44,7.44,0,0,1-5-2.16c-.93-.93-4.95-6.81-14-20.94-6.91-10.83-12.79-19.81-12.89-19.91-.41-.2-.41-.2,12.17,22.28,7.94,14.13,10.52,19.19,10.52,19.81,0,1.34-.41,2.06-2.06,3.91-2.79,3.1-4,6.61-4.95,13.93-1,8.15-3.82,13.92-11.76,23.72-4.64,5.78-5.36,6.81-6.5,9.18a17.54,17.54,0,0,0-2.06,8.25,25.82,25.82,0,0,0,1.34,10.11c1,3.3,2.17,5.47,4.95,9.7,2.37,3.71,3.82,6.5,3.82,7.53,0,.82.2.82,3.92,0,8.87-2.06,16.19-5.57,20.21-9.9,2.48-2.69,3.1-4.13,3.1-7.84a8.54,8.54,0,0,0-.72-4.34c-1-2.26-3-4.12-7.22-7-5.57-3.82-7.95-6.91-8.57-11-.51-3.5.11-5.87,3.2-12.37,3.2-6.71,4-9.49,4.54-16.3.31-4.33.83-6.09,2.06-7.43s2.48-2,5.68-2.37c5.26-.72,8.66-2.06,11.34-4.64a9.7,9.7,0,0,0,3.51-7.53l.1-2.37-1.34-1.45c-4.85-5.57-72-79.42-72.3-79.42C461.73,284.13,463.38,286.09,465.34,288.57ZM497,435.24a4.26,4.26,0,0,0-1.34-5.67c-1.76-1.14-4.44-.62-4.44.93a1.06,1.06,0,0,0,.83,1c.93.51,1,1,.31,2.16s-.72,2.17.2,2.89C494,437.72,496,437.1,497,435.24Z" transform="translate(-257.27 -284.1)"/><path class="cls-7" d="M538.78,381a9.18,9.18,0,0,0-5.57,6.08c-.41,1.65-.2,4.64.52,5.57,1.13,1.44,2.17,1.86,5,1.86,5.68,0,10.52-2.48,11-5.47.52-2.48-1.65-5.88-4.64-7.43A10.51,10.51,0,0,0,538.78,381Zm6.6,5.15c.83-1.24.52-2.58-1-3.5-2.78-1.76-7-.31-7,2.37,0,1.34,2.17,2.78,4.23,2.78A5.64,5.64,0,0,0,545.38,386.14Z" transform="translate(-257.27 -284.1)"/><path class="cls-8" d="M587.93,285.11,546,373.17a1.71,1.71,0,0,0,.36,2L659.59,483.65a1.73,1.73,0,0,0,2.39,0L775.2,375.17a1.7,1.7,0,0,0,.37-2l-41.92-88.06a1.71,1.71,0,0,0-1.55-1H589.49a1.7,1.7,0,0,0-1.56,1Z" transform="translate(-257.27 -284.1)"/><path class="cls-9" d="M675.33,382.21h0c-.81.06-5,.31-14.38.31-7.45,0-12.74-.22-14.59-.31h0c-28.8-1.27-50.29-6.28-50.29-12.28s21.49-11,50.29-12.29v19.58c1.88.13,7.27.45,14.72.45,8.94,0,13.42-.37,14.23-.44V357.65c28.73,1.28,50.17,6.29,50.17,12.28s-21.43,11-50.17,12.27h0Zm0-26.58V338.1h40.1V311.38H606.26V338.1h40.09v17.52c-32.59,1.5-57.09,7.95-57.09,15.69s24.5,14.18,57.09,15.68v56.16h29V387c32.51-1.49,57-7.94,57-15.67s-24.45-14.18-57-15.68h0Zm0,0" transform="translate(-257.27 -284.1)"/><path class="cls-10" d="M801.3,484c-20,.57-36.81-6.32-53-14.39a204.14,204.14,0,0,1-57.61-42.52C679.81,415.53,670.4,403,664.38,388c-5.79-14.45-4.3-27.16,5.17-39.68,12.73-16.83,24.29-34.54,37.08-51.32,8.58-11.24,21.49-14.09,34.69-12.31,35.1,4.72,64.48,21.68,91,44.31,15.56,13.26,28.75,28.23,38.06,46.66,8.47,16.78,8.14,32-3.87,47.18-11.32,14.31-22.22,29-32.13,44.32-8.41,13-19.64,18-33.11,16.88" transform="translate(-257.27 -284.1)"/><g class="cls-11"><rect class="cls-12" x="407.16" y="3.66" width="206.34" height="148.93"/></g><path class="cls-13" d="M821.8,420.06a33.63,33.63,0,0,1,2.79-4.1,1.85,1.85,0,0,0,.56-1.21h1.58a58.77,58.77,0,0,0,14,1.77,35.31,35.31,0,0,0,13.87-1.77,16.58,16.58,0,0,0,10.8-11.26,25.06,25.06,0,0,0,0-12.29,57.33,57.33,0,0,0-3-9.31c0-.65.84-.47,1.3,0,2.14,0,4.29,1.12,6.33,1.67a40.8,40.8,0,0,1,2.33,8,35.06,35.06,0,0,1,0,10.33,22.92,22.92,0,0,1-4.47,11.64c-13.12,18.62-26.34,36.68-39.47,55.11a27,27,0,0,1-15.64,10.62,48.69,48.69,0,0,1-15.17,1.11,60.27,60.27,0,0,1-9.87-1.11,116.35,116.35,0,0,1-12.48-3.17A165.5,165.5,0,0,1,744,462.7a209.36,209.36,0,0,1-24.76-15.92,197.45,197.45,0,0,1-18.62-15.92c-.56-.56-1.21-.93-1.49-1.68a21.8,21.8,0,0,0,10.71-3.54,54.41,54.41,0,0,0,8.19-6.33q6.33-5.67,12.57-11.17a44.85,44.85,0,0,1,9.77-6.79,21.46,21.46,0,0,1,7.54-2,13.67,13.67,0,0,1,7.36,1.86,29.45,29.45,0,0,1,7.63,6.7c3.91,4.94,7.45,10.06,11.54,14.81a40.48,40.48,0,0,0,12.94,11,22.11,22.11,0,0,0,12.95,1.77,21.69,21.69,0,0,0,7.35-2.61,47.26,47.26,0,0,0,9.31-7.35,11.9,11.9,0,0,0,2.14-2.7c1.12,0,2.14.56,3.17,0a2.13,2.13,0,0,0,1.11-1.77,2.22,2.22,0,0,0-1.58-1m5.4,1.3c-1.4,1.68-1.21,2.42,0,2.89a5.65,5.65,0,0,0,1.3,0l5.4.65a50.94,50.94,0,0,0,10.62,0c1.39,0,3.07,0,4.28-1a1.88,1.88,0,0,0-1-2.43,71.61,71.61,0,0,1-20.57-.09" transform="translate(-257.27 -284.1)"/><path class="cls-14" d="M862.48,382a56.37,56.37,0,0,1,3,9.31,24.83,24.83,0,0,1,0,12.29,16.52,16.52,0,0,1-10.8,11.26,35.28,35.28,0,0,1-13.87,1.77,58.12,58.12,0,0,1-14-1.77h-1.59c0-.65-1.3-.65-1.86-.74a140.79,140.79,0,0,1-15.26-4.84c-4.47-1.68-8.76-3.63-13-5.68A130.28,130.28,0,0,1,782,396.32l-5-3.17c-4.1-2.51-8.1-5.21-11.92-8.1-2.14-1.49-4-3.16-6.14-4.65a47.13,47.13,0,0,1-4.1-3.35,167,167,0,0,1-18.62-18.62,111.74,111.74,0,0,1-10.52-13.22,108.45,108.45,0,0,1-9.31-16.29,44.11,44.11,0,0,1-3.44-10.62,38.32,38.32,0,0,1,0-5.67,15.92,15.92,0,0,1,4.84-12,14,14,0,0,1,5.59-3.63,41.19,41.19,0,0,1,8.28-1.87,76.1,76.1,0,0,1,9.31,0,49,49,0,0,1,5.12.75,55.72,55.72,0,0,1,7.91,1.39,14.69,14.69,0,0,1,4.47,1c5,1.67,10.06,3.16,14.9,5.21s10.52,4.66,15.54,7.36a195.74,195.74,0,0,1,21.51,13.31c3.91,2.7,7.63,5.59,11.45,8.47s4.93,4.38,7.45,6.52a140.84,140.84,0,0,1,11.45,11.08,131.22,131.22,0,0,1,11.82,15,115.63,115.63,0,0,1,10,16.76m-46.54,3.54a11.64,11.64,0,0,0,4.93-.56,7.34,7.34,0,0,0,5.77-5.12,10.93,10.93,0,0,0,0-5.21,30,30,0,0,0-4.37-10.34,67.85,67.85,0,0,0-12.48-14.71,87.18,87.18,0,0,0-7-6.05,90.3,90.3,0,0,0-13.13-8.75,79.6,79.6,0,0,0-17.13-7.35,44,44,0,0,0-7.63-1.4,23.87,23.87,0,0,0-7.73,0,8.2,8.2,0,0,0-6.33,8.29,31.78,31.78,0,0,0,2.89,9.31,60.27,60.27,0,0,0,10.7,14.61,100.05,100.05,0,0,0,13.6,11.83,96,96,0,0,0,14.15,8.65,65.87,65.87,0,0,0,13.12,5.12,43.49,43.49,0,0,0,10.8,1.68Z" transform="translate(-257.27 -284.1)"/><path class="cls-15" d="M816.12,386.49A43.67,43.67,0,0,1,806,384.82a66.49,66.49,0,0,1-13.12-5.12,96.08,96.08,0,0,1-14.8-8.66,100,100,0,0,1-13.6-11.82A60.3,60.3,0,0,1,754,345a31.59,31.59,0,0,1-2.89-9.31,8.19,8.19,0,0,1,6.33-8.28,23.87,23.87,0,0,1,7.73,0,44,44,0,0,1,7.63,1.39A80.13,80.13,0,0,1,790,336.13a88.7,88.7,0,0,1,13.13,8.75,87.18,87.18,0,0,1,7,6.05,67.62,67.62,0,0,1,12.48,14.71A30,30,0,0,1,826.92,376a11,11,0,0,1,0,5.22,7.34,7.34,0,0,1-5.77,5.12,11.54,11.54,0,0,1-5,.18" transform="translate(-257.27 -284.1)"/><path class="cls-16" d="M884.73,484.1a100,100,0,1,0-100-100A99.76,99.76,0,0,0,884.73,484.1Z" transform="translate(-257.27 -284.1)"/><path class="cls-10" d="M912.23,399.94c0-14.59-8.75-19.59-26.25-21.67-12.5-1.67-15-5-15-10.83s4.17-9.59,12.5-9.59c7.5,0,11.67,2.5,13.75,8.75a3.15,3.15,0,0,0,2.92,2.09h6.67a2.85,2.85,0,0,0,2.91-2.92v-.42A20.8,20.8,0,0,0,891,348.27v-10c0-1.67-1.25-2.92-3.33-3.33H881.4c-1.67,0-2.92,1.25-3.33,3.33v9.58c-12.5,1.67-20.42,10-20.42,20.42,0,13.75,8.33,19.17,25.83,21.25,11.67,2.08,15.42,4.58,15.42,11.25S893.07,412,885.15,412c-10.83,0-14.58-4.58-15.83-10.83a3,3,0,0,0-2.92-2.5h-7.08a2.85,2.85,0,0,0-2.92,2.91V402c1.67,10.42,8.33,17.92,22.08,20v10c0,1.67,1.25,2.92,3.34,3.33h6.25c1.66,0,2.91-1.25,3.33-3.33V422c12.5-2.08,20.83-10.83,20.83-22.08Z" transform="translate(-257.27 -284.1)"/><path class="cls-10" d="M863.48,443.69a62.36,62.36,0,0,1,0-117.09,4.17,4.17,0,0,0,2.5-4.16V316.6a3.17,3.17,0,0,0-2.5-3.33,2.47,2.47,0,0,0-1.66.42,75,75,0,0,0,0,142.91,2.53,2.53,0,0,0,3.75-1.66c.41-.42.41-.84.41-1.67v-5.83C866,446.19,864.73,444.52,863.48,443.69Zm44.17-130a2.53,2.53,0,0,0-3.75,1.66c-.42.42-.42.84-.42,1.67v5.83A5.52,5.52,0,0,0,906,327a62.34,62.34,0,0,1,0,117.08,4.21,4.21,0,0,0-2.5,4.17v5.83a3.18,3.18,0,0,0,2.5,3.34,2.5,2.5,0,0,0,1.67-.42,75.3,75.3,0,0,0,0-143.33Z" transform="translate(-257.27 -284.1)"/><path class="cls-17" d="M1009.73,484.13a100,100,0,1,0-100-100A100,100,0,0,0,1009.73,484.13Z" transform="translate(-257.27 -284.1)"/><path class="cls-18" d="M967.5,417.66a10.07,10.07,0,0,1-4.82-8.58V389.54a4.21,4.21,0,0,1,6.32-3.62l44.09,25.71a8.38,8.38,0,0,1,4.17,7.25v20.24a5,5,0,0,1-5,5,5.11,5.11,0,0,1-2.64-.74Zm65.72-37.09a8.42,8.42,0,0,1,4.17,7.25V428.9a3.34,3.34,0,0,1-1.71,2.92l-9.65,5.43a1.68,1.68,0,0,1-.39.16V414.6a8.4,8.4,0,0,0-4.09-7.21l-38.72-23.16V358.48a4.21,4.21,0,0,1,6.32-3.62Zm19.3-30.34a8.39,8.39,0,0,1,4.18,7.26v60a3.4,3.4,0,0,1-1.77,2.95l-9.15,4.94V383.61a8.41,8.41,0,0,0-4.07-7.2l-39.58-23.74V328.25a4.32,4.32,0,0,1,.56-2.11,4.21,4.21,0,0,1,5.74-1.52Z" transform="translate(-257.27 -284.1)"/></svg>