<svg id="Layer_1" data-name="Layer 1" xmlns="http://www.w3.org/2000/svg" xmlns:xlink="http://www.w3.org/1999/xlink" viewBox="0 0 873.01 200"><defs><style>.cls-1{fill:url(#linear-gradient);}.cls-2,.cls-7{fill:#fff;}.cls-3{fill:#2f3030;}.cls-4{fill:#818283;}.cls-5{fill:#343535;}.cls-6{fill:#50af95;}.cls-6,.cls-7{fill-rule:evenodd;}.cls-8{fill:#2775ca;}.cls-9{fill:#f5ac37;}.cls-10{fill:#fefefd;}.cls-11{font-size:48px;stroke:#000;stroke-miterlimit:10;stroke-width:4px;font-family:MyriadPro-Regular, Myriad Pro;}.cls-12{fill:#247cf6;}.cls-13{fill:url(#linear-gradient-2);}.cls-14{fill:url(#linear-gradient-3);}.cls-15{fill:url(#linear-gradient-4);}</style><linearGradient id="linear-gradient" x1="45.13" y1="704.71" x2="45.13" y2="704.32" gradientTransform="matrix(511.95, 0, 0, -512.01, -22481.6, 361028.61)" gradientUnits="userSpaceOnUse"><stop offset="0" stop-color="#f9aa4b"/><stop offset="1" stop-color="#f7931a"/></linearGradient><linearGradient id="linear-gradient-2" x1="356.94" y1="458.92" x2="342.4" y2="567.36" gradientTransform="matrix(1, 0, 0, -1, 0, 770)" gradientUnits="userSpaceOnUse"><stop offset="0" stop-color="#a5cbff"/><stop offset="1" stop-color="#b4d4ff"/></linearGradient><linearGradient id="linear-gradient-3" x1="345.87" y1="403.67" x2="335.76" y2="560.04" gradientTransform="matrix(1, 0, 0, -1, 0, 770)" gradientUnits="userSpaceOnUse"><stop offset="0" stop-color="#4090ff"/><stop offset="1" stop-color="#a5cbff"/></linearGradient><linearGradient id="linear-gradient-4" x1="343.19" y1="436.78" x2="343.19" y2="357.5" gradientTransform="matrix(1, 0, 0, -1, 0, 770)" gradientUnits="userSpaceOnUse"><stop offset="0" stop-color="#2c85ff"/><stop offset="1" stop-color="#035bd4"/></linearGradient></defs><g id="g16"><path id="coin" class="cls-1" d="M718,336.69a100,100,0,1,1-72.82-121.2A100,100,0,0,1,718,336.69Z" transform="translate(-247 -212.5)"/><path id="symbol" class="cls-2" d="M665.08,298.25c2-13.3-8.14-20.46-22-25.23l4.49-18-11-2.74-4.38,17.55c-2.88-.72-5.84-1.39-8.79-2.07l4.41-17.66-11-2.74-4.49,18c-2.39-.54-4.74-1.08-7-1.64v-.06l-15.13-3.78-2.92,11.72s8.14,1.87,8,2c4.44,1.11,5.25,4.05,5.11,6.38L595.3,300.5a10.21,10.21,0,0,1,1.15.36l-1.16-.28-7.18,28.76a4,4,0,0,1-5,2.61c.11.16-8-2-8-2l-5.45,12.56,14.28,3.55c2.66.67,5.26,1.37,7.82,2l-4.54,18.23,11,2.74,4.5-18c3,.81,5.9,1.56,8.74,2.27l-4.48,17.95,11,2.74,4.54-18.2c18.71,3.54,32.78,2.11,38.7-14.81,4.77-13.62-.24-21.48-10.08-26.61,7.17-1.65,12.57-6.37,14-16.11ZM640,333.41c-3.39,13.62-26.33,6.26-33.77,4.41l6-24.15C619.7,315.52,643.55,319.2,640,333.41Zm3.39-35.35c-3.09,12.39-22.18,6.09-28.38,4.55l5.47-21.91C626.68,282.25,646.63,285.13,643.4,298.06Z" transform="translate(-247 -212.5)"/></g><polygon class="cls-3" points="438 149.93 438 200 499.47 113.66 438 149.93"/><polygon points="438 74.07 438 138.34 499.47 101.98 438 74.07"/><polygon class="cls-3" points="438 0 438 74.07 499.47 101.98 438 0"/><polygon class="cls-4" points="438.01 149.93 438.01 200 376.54 113.66 438.01 149.93"/><polygon class="cls-5" points="438.01 74.07 438.01 138.34 376.54 101.98 438.01 74.07"/><polygon class="cls-4" points="438.01 0 438.01 74.07 376.54 101.98 438.01 0"/><path class="cls-6" d="M730.14,213.48l-41.92,88.06a1.71,1.71,0,0,0,.37,2L801.81,412a1.73,1.73,0,0,0,2.39,0L917.42,303.53a1.7,1.7,0,0,0,.36-2l-41.92-88.05a1.68,1.68,0,0,0-1.54-1H731.7a1.7,1.7,0,0,0-1.56,1Z" transform="translate(-247 -212.5)"/><path class="cls-7" d="M817.55,310.58h0c-.81.06-5,.31-14.38.31-7.45,0-12.74-.22-14.6-.31h0c-28.79-1.27-50.28-6.28-50.28-12.28s21.49-11,50.28-12.3v19.59c1.88.13,7.28.45,14.73.45,8.94,0,13.42-.37,14.22-.45V286c28.73,1.28,50.18,6.29,50.18,12.28s-21.44,11-50.18,12.27h0Zm0-26.59V266.47h40.1V239.75H748.47v26.72h40.1V284c-32.59,1.49-57.1,7.95-57.1,15.68s24.51,14.19,57.1,15.69v56.15h29V315.34c32.51-1.5,57-7.94,57-15.67s-24.45-14.18-57-15.68h0Zm0,0" transform="translate(-247 -212.5)"/><path class="cls-8" d="M908,412.5a100,100,0,1,0-100-100A99.76,99.76,0,0,0,908,412.5Z" transform="translate(-247 -212.5)"/><path class="cls-2" d="M935.5,328.33c0-14.58-8.75-19.58-26.25-21.66-12.5-1.67-15-5-15-10.84s4.17-9.58,12.5-9.58c7.5,0,11.67,2.5,13.75,8.75a3.14,3.14,0,0,0,2.92,2.08h6.67a2.84,2.84,0,0,0,2.91-2.91v-.42a20.79,20.79,0,0,0-18.75-17.08v-10c0-1.67-1.25-2.92-3.33-3.34h-6.25c-1.67,0-2.92,1.25-3.33,3.34v9.58c-12.5,1.67-20.42,10-20.42,20.42,0,13.75,8.33,19.16,25.83,21.25,11.67,2.08,15.42,4.58,15.42,11.25s-5.83,11.25-13.75,11.25c-10.83,0-14.58-4.59-15.83-10.84a3.06,3.06,0,0,0-2.92-2.5h-7.08a2.85,2.85,0,0,0-2.92,2.92v.42c1.67,10.41,8.33,17.91,22.08,20v10c0,1.66,1.25,2.91,3.34,3.33h6.25c1.66,0,2.91-1.25,3.33-3.33v-10c12.5-2.09,20.83-10.84,20.83-22.09Z" transform="translate(-247 -212.5)"/><path class="cls-2" d="M886.75,372.08a62.35,62.35,0,0,1,0-117.08,4.17,4.17,0,0,0,2.5-4.17V245a3.15,3.15,0,0,0-2.5-3.33,2.52,2.52,0,0,0-1.66.41,75,75,0,0,0,0,142.92,2.54,2.54,0,0,0,3.75-1.67c.41-.41.41-.83.41-1.66v-5.84C889.25,374.58,888,372.92,886.75,372.08Zm44.17-130a2.53,2.53,0,0,0-3.75,1.67c-.42.42-.42.83-.42,1.67v5.83a5.54,5.54,0,0,0,2.5,4.17,62.34,62.34,0,0,1,0,117.08,4.19,4.19,0,0,0-2.5,4.17v5.83a3.16,3.16,0,0,0,2.5,3.33,2.55,2.55,0,0,0,1.67-.41,75.31,75.31,0,0,0,0-143.34Z" transform="translate(-247 -212.5)"/><g id="Layer_1-2" data-name="Layer_1"><path class="cls-9" d="M1020,212.5a100,100,0,1,1-100,100A100,100,0,0,1,1020,212.5Z" transform="translate(-247 -212.5)"/><path class="cls-10" d="M1023.69,319.56h38c.81,0,1.19,0,1.25-1.06a72.84,72.84,0,0,0,0-11.63c0-.75-.38-1.06-1.19-1.06H986.13c-.94,0-1.19.31-1.19,1.19v11.12c0,1.44,0,1.44,1.5,1.44Zm35-26.75a1.19,1.19,0,0,0,0-.87,24.75,24.75,0,0,0-2.25-3.94,32.47,32.47,0,0,0-4.63-5.81,15.38,15.38,0,0,0-2.88-2.82,45,45,0,0,0-18.75-9.5,46.86,46.86,0,0,0-10.62-1.12H986c-.94,0-1.07.37-1.07,1.19v22.18c0,.94,0,1.19,1.19,1.19h72.12s.63-.13.76-.5Zm0,39.75a14.18,14.18,0,0,0-3.19,0H986.19c-.94,0-1.25,0-1.25,1.25V355.5c0,1,0,1.25,1.25,1.25h32a15.87,15.87,0,0,0,4.56-.31,47.63,47.63,0,0,0,13.57-3,24.76,24.76,0,0,0,4.55-2.12h.44a40.63,40.63,0,0,0,17.44-17.56s.43-.94-.06-1.19ZM972.38,368V333.44c0-.82,0-.94-1-.94H957.82c-.75,0-1.07,0-1.07-1V319.63h14.5c.81,0,1.13,0,1.13-1.06V306.82c0-.76,0-.94-1-.94H957.82c-.75,0-1.07,0-1.07-1v-11c0-.69,0-.87,1-.87h13.44c.94,0,1.19,0,1.19-1.19V258.13c0-1,0-1.25,1.25-1.25h46.87a71.85,71.85,0,0,1,10.13,1.13,60.85,60.85,0,0,1,19.56,7.25,55,55,0,0,1,11,8.5,60.62,60.62,0,0,1,6.68,8.31,50.4,50.4,0,0,1,4.89,9.56,1.62,1.62,0,0,0,1.86,1.32h11.19c1.44,0,1.44,0,1.5,1.37v10.25c0,1-.37,1.26-1.38,1.26h-8.62c-.88,0-1.13,0-1.07,1.12a62.45,62.45,0,0,1,0,11.44c0,1.06,0,1.18,1.2,1.18h9.87c.43.57,0,1.13,0,1.7a13.22,13.22,0,0,1,0,2.18V331c0,1.06-.32,1.38-1.26,1.38h-11.81a1.56,1.56,0,0,0-1.81,1.19,49.85,49.85,0,0,1-13.13,19.12,72.22,72.22,0,0,1-6.69,5.38c-2.5,1.44-4.93,2.93-7.5,4.12a67.55,67.55,0,0,1-14.75,4.69,76.94,76.94,0,0,1-14.62,1.18H972.36V368Z" transform="translate(-247 -212.5)"/></g><text class="cls-11" transform="translate(216.07 110.78)">+</text><path class="cls-12" d="M372,360.54a495.73,495.73,0,0,0,67.42,18.15,497.26,497.26,0,0,0-60.82,33.81A496.44,496.44,0,0,1,247,367.07a497.7,497.7,0,0,1,60.94-33.85,499.55,499.55,0,0,1-59.71-36,498.08,498.08,0,0,1,65.19-25,500.94,500.94,0,0,1-54.28-44.06,496.75,496.75,0,0,1,68-15.64,501,501,0,0,0,54.29,44.06,496.82,496.82,0,0,0,59.67,36,497.09,497.09,0,0,0-68.06,15.66,497.9,497.9,0,0,0,64,27.32A496.07,496.07,0,0,0,372,360.54Z" transform="translate(-247 -212.5)"/><path class="cls-13" d="M441.14,292.55a497.29,497.29,0,0,0-68.05,15.66,495.79,495.79,0,0,1-59.68-36,500.94,500.94,0,0,1-54.28-44.06,497.09,497.09,0,0,1,68-15.64,501,501,0,0,0,54.29,44.06,497.73,497.73,0,0,0,59.68,36Z" transform="translate(-247 -212.5)"/><path class="cls-14" d="M437.05,335.52a495.31,495.31,0,0,0-65.08,25,492.58,492.58,0,0,1-64-27.33,500.8,500.8,0,0,1-59.71-36,496.17,496.17,0,0,1,65.19-25,499.72,499.72,0,0,0,123.64,63.32Z" transform="translate(-247 -212.5)"/><path class="cls-15" d="M439.39,378.69a497.26,497.26,0,0,0-60.82,33.81A496.44,496.44,0,0,1,247,367.07a499,499,0,0,1,60.94-33.85,497.15,497.15,0,0,0,131.45,45.47Z" transform="translate(-247 -212.5)"/></svg>