<svg id="Layer_1" data-name="Layer 1" xmlns="http://www.w3.org/2000/svg" viewBox="0 0 200 200"><defs><style>.cls-1{fill:#b7b5b1;}.cls-2{fill:#244b81;}</style></defs><g id="Shape_1" data-name="Shape 1"><path class="cls-1" d="M783.5,304.49c-23-133.14-196.83-107.38-199.93,0,10,5.2,16.34,8.37,16.34,8.37s-5.32,3.18-16.41,10.27c20,130.52,190.89,111.57,200-.15-10.86-6.66-16.79-10.18-16.79-10.18S771.76,310.38,783.5,304.49ZM698,351l-16.3-28-16.6,28-12.52-.86,23.58-39.76L654.87,276l12.81-1.15,15.14,25.46L698,276l11.94.28-19.8,33.76,21.84,40.62Z" transform="translate(-583.5 -214.04)"/></g><g id="Shape_1-2" data-name="Shape 1"><path class="cls-2" d="M775.39,299.34c-31.15-118.31-173.93-86.3-183.71,0,19.81,11.15,24.3,13.77,24.3,13.77s-7.65,4.89-24.37,15.51c21.25,113.73,175.31,91.88,183.75-.14-15.55-9.75-24.72-15.42-24.72-15.42S771.6,301.34,775.39,299.34ZM698,351.13l-16.3-28-16.6,28-12.52-.86,23.58-39.75L654.87,276.2l12.81-1.15,15.14,25.46L698,276.2l11.94.28-19.8,33.75,21.83,40.61Z" transform="translate(-583.5 -214.04)"/></g></svg>