<svg id="Layer_1" data-name="Layer 1" xmlns="http://www.w3.org/2000/svg" viewBox="0 0 614.24 146.14"><title>bytom</title><rect x="195.06" y="30.52" width="15.13" height="85.11"/><path d="M1005.3,509.87a9.46,9.46,0,1,0,9.46-9.45A9.46,9.46,0,0,0,1005.3,509.87Z" transform="translate(-527.5 -436.8)"/><polygon points="27.21 118.94 22.8 99.27 61.04 61.04 46.33 46.33 0 92.65 9.79 136.35 53.49 146.14 61.58 138.05 46.87 123.34 27.21 118.94"/><polygon points="92.65 0 84.56 8.09 99.27 22.8 118.94 27.21 123.34 46.87 85.11 85.11 99.82 99.82 146.14 53.49 136.35 9.79 92.65 0"/><path d="M977.88,484.62v50.5l36.88,21,36.88-21v-50.5l-36.88-20.94Zm58.7,41.45-21.82,12.39-21.82-12.39V493.68l21.82-12.39,21.82,12.39Z" transform="translate(-527.5 -436.8)"/><polygon points="246.16 30.52 217.75 30.52 217.75 38.08 217.75 45.65 239.89 45.65 250.3 56.05 239.89 66.45 217.75 66.45 217.75 79.69 239.89 79.69 250.3 90.09 239.89 100.5 217.75 100.5 217.75 115.63 246.16 115.63 271.69 90.09 254.67 73.07 271.69 56.05 246.16 30.52"/><polygon points="365.27 45.65 394.58 45.65 394.58 115.63 409.71 115.63 409.71 45.65 439.03 45.65 439.03 30.52 365.27 30.52 365.27 45.65"/><polygon points="598.56 30.52 577.36 51.71 556.17 30.52 540.48 30.52 540.48 115.63 555.61 115.63 555.61 51.36 577.36 73.11 599.11 51.36 599.11 115.63 614.24 115.63 614.24 30.52 598.56 30.52"/><polygon points="315.15 59.28 285.02 29.15 274.32 39.85 307.59 73.11 307.59 115.63 322.72 115.63 322.72 73.11 355.98 39.85 345.28 29.15 315.15 59.28"/><polygon points="22.8 46.87 27.21 27.21 46.87 22.8 85.11 61.04 99.82 46.33 53.49 0 9.79 9.79 0 53.49 8.09 61.58 22.8 46.87"/><polygon points="123.34 99.27 118.94 118.94 99.27 123.34 61.04 85.11 46.33 99.82 92.65 146.14 136.35 136.35 146.14 92.65 138.05 84.56 123.34 99.27"/></svg>