<svg id="Layer_1" data-name="Layer 1" xmlns="http://www.w3.org/2000/svg" viewBox="0 0 335.27 70.01"><defs><style>.cls-1{fill:#fff;}</style></defs><title>bitcoin</title><path d="M803.41,750.34a35,35,0,1,1-25.49-42.42A35,35,0,0,1,803.41,750.34Z" transform="translate(-734.46 -706.87)"/><path class="cls-1" d="M784.89,736.89c.7-4.66-2.85-7.17-7.7-8.84l1.57-6.31-3.84-1-1.53,6.14c-1-.25-2-.49-3.07-.72l1.54-6.19-3.84-.95-1.57,6.3L764,724.8v0l-5.3-1.33-1,4.11s2.85.65,2.79.69a2.06,2.06,0,0,1,1.79,2.23l-1.79,7.19.39.13-.4-.1L758,747.77a1.4,1.4,0,0,1-1.76.91c0,.05-2.79-.7-2.79-.7l-1.91,4.4,5,1.25,2.74.7-1.59,6.38,3.83,1,1.58-6.31c1,.28,2.06.54,3.06.79l-1.57,6.28,3.84,1L770,757c6.55,1.24,11.47.74,13.54-5.18,1.67-4.77-.08-7.52-3.53-9.31C782.49,742,784.38,740.29,784.89,736.89Zm-8.78,12.3c-1.18,4.77-9.21,2.19-11.82,1.54l2.11-8.45C769,742.93,777.35,744.22,776.11,749.19Zm1.19-12.37c-1.08,4.33-7.77,2.13-9.93,1.59l1.91-7.67C771.45,731.28,778.43,732.29,777.3,736.82Z" transform="translate(-734.46 -706.87)"/><path d="M837,728.05a16.82,16.82,0,0,1,7.35,1.5,14.82,14.82,0,0,1,5.15,4.08,17.17,17.17,0,0,1,3,6,27.26,27.26,0,0,1,1,7.44,30.36,30.36,0,0,1-8.41,21,28.87,28.87,0,0,1-9.22,6.37,28,28,0,0,1-11.51,2.35c-.53,0-1.47,0-2.8,0a42,42,0,0,1-4.55-.4,52.18,52.18,0,0,1-5.45-1.07,26.7,26.7,0,0,1-5.45-1.94L821.44,709l13.73-2.13-5.49,22.85a21.64,21.64,0,0,1,3.54-1.24,16,16,0,0,1,3.81-.44ZM825.52,766a12,12,0,0,0,5.84-1.51,15.4,15.4,0,0,0,4.75-4,20.33,20.33,0,0,0,3.14-5.72,19.32,19.32,0,0,0,1.15-6.64,13.15,13.15,0,0,0-1.41-6.65q-1.43-2.38-5.23-2.39a16.66,16.66,0,0,0-3.23.44,8,8,0,0,0-3.59,1.87l-5.85,24.27.93.18a7,7,0,0,0,.84.13,10.69,10.69,0,0,0,1.07.05Z" transform="translate(-734.46 -706.87)"/><path d="M867.75,775.63H854.64L865.71,729h13.2Zm6.38-52.27a8.19,8.19,0,0,1-5-1.64,5.78,5.78,0,0,1-2.21-5,8.33,8.33,0,0,1,.75-3.49,9.26,9.26,0,0,1,2-2.84,9.75,9.75,0,0,1,2.88-1.9,8.81,8.81,0,0,1,3.51-.71,8.09,8.09,0,0,1,4.95,1.64,5.83,5.83,0,0,1,2.22,5,8.16,8.16,0,0,1-.76,3.5,9.14,9.14,0,0,1-2,2.84,9.43,9.43,0,0,1-2.88,1.9A8.58,8.58,0,0,1,874.13,723.36Z" transform="translate(-734.46 -706.87)"/><path d="M890.4,717.43l13.73-2.13L900.76,729h14.71l-2.66,10.81H898.19l-3.89,16.3a18.41,18.41,0,0,0-.62,3.8,7.09,7.09,0,0,0,.44,3.06,3.85,3.85,0,0,0,1.91,2,8.77,8.77,0,0,0,3.94.71,20.71,20.71,0,0,0,4.12-.4,28.5,28.5,0,0,0,4-1.1l1,10.1a46.57,46.57,0,0,1-5.75,1.68,33.61,33.61,0,0,1-7.36.7q-6.11,0-9.48-1.81a10.46,10.46,0,0,1-4.78-5,15.72,15.72,0,0,1-1.24-7.22,46.34,46.34,0,0,1,1.24-8.59l8.68-36.67Z" transform="translate(-734.46 -706.87)"/><path d="M914.89,757a32.72,32.72,0,0,1,2-11.34,28.05,28.05,0,0,1,5.58-9.31,26.34,26.34,0,0,1,8.82-6.28,28.24,28.24,0,0,1,11.56-2.31,30.75,30.75,0,0,1,7.13.76,29.32,29.32,0,0,1,5.72,2l-4.52,10.28c-1.19-.48-2.41-.9-3.68-1.28a16,16,0,0,0-4.65-.58,13,13,0,0,0-10.41,4.52q-3.85,4.51-3.86,12.14a12.46,12.46,0,0,0,2,7.31c1.29,1.86,3.69,2.79,7.17,2.79a23.05,23.05,0,0,0,5-.53,24.9,24.9,0,0,0,4.26-1.33l1,10.54a48.35,48.35,0,0,1-5.5,1.73,30.56,30.56,0,0,1-7.18.75,24.35,24.35,0,0,1-9.3-1.59,17.75,17.75,0,0,1-6.28-4.3,16,16,0,0,1-3.59-6.34A26,26,0,0,1,914.89,757Z" transform="translate(-734.46 -706.87)"/><path d="M973.14,776.86a21.28,21.28,0,0,1-8.15-1.42,15,15,0,0,1-5.71-4,17.38,17.38,0,0,1-3.42-6.07,24.57,24.57,0,0,1-1.14-7.74A34.27,34.27,0,0,1,956.44,747a30.13,30.13,0,0,1,5.1-9.56,27.22,27.22,0,0,1,8.23-7,22.73,22.73,0,0,1,11.16-2.7A21.63,21.63,0,0,1,989,729.2a15.19,15.19,0,0,1,5.76,4,17.18,17.18,0,0,1,3.4,6.07,24.63,24.63,0,0,1,1.15,7.75,35.4,35.4,0,0,1-1.67,10.63,30.89,30.89,0,0,1-5,9.57,26.12,26.12,0,0,1-8.2,6.95A23.24,23.24,0,0,1,973.14,776.86ZM979.69,739a8.31,8.31,0,0,0-5.13,1.68,14.57,14.57,0,0,0-3.72,4.25,20.94,20.94,0,0,0-2.26,5.63,24.37,24.37,0,0,0-.75,5.8,14.23,14.23,0,0,0,1.41,6.92q1.43,2.47,5.14,2.48a8.29,8.29,0,0,0,5.14-1.69,14.61,14.61,0,0,0,3.72-4.25,21,21,0,0,0,2.26-5.63,24.31,24.31,0,0,0,.75-5.8,14,14,0,0,0-1.42-6.91c-.94-1.65-2.66-2.48-5.14-2.48Z" transform="translate(-734.46 -706.87)"/><path d="M1013.64,775.63h-13.12l11.07-46.6h13.21Zm6.37-52.27a8.13,8.13,0,0,1-5-1.64,5.79,5.79,0,0,1-2.22-5,8.33,8.33,0,0,1,.75-3.49,9.29,9.29,0,0,1,2-2.84,9.62,9.62,0,0,1,2.88-1.9,8.71,8.71,0,0,1,3.49-.71,8.13,8.13,0,0,1,5,1.64,5.83,5.83,0,0,1,2.21,5,8.31,8.31,0,0,1-.76,3.5,9.12,9.12,0,0,1-2,2.84,9.56,9.56,0,0,1-2.88,1.9A8.64,8.64,0,0,1,1020,723.36Z" transform="translate(-734.46 -706.87)"/><path d="M1034.25,731.15c1-.29,2.11-.64,3.32-1s2.57-.73,4.08-1a49.6,49.6,0,0,1,5-.81A56.83,56.83,0,0,1,1053,728q10.38,0,14.32,6t1.38,16.48l-6,25.15h-13.19l5.84-24.63c.36-1.53.64-3,.85-4.47a10.93,10.93,0,0,0,0-3.81,4.53,4.53,0,0,0-1.64-2.66,6.29,6.29,0,0,0-3.94-1,26.9,26.9,0,0,0-5.22.54l-8.6,36h-13.2Z" transform="translate(-734.46 -706.87)"/></svg>