<svg id="Layer_1" data-name="Layer 1" xmlns="http://www.w3.org/2000/svg" viewBox="0 0 358 91"><defs><style>.cls-1{fill:#3cffa4;opacity:0;}</style></defs><title>bytom-square</title><rect class="cls-1" width="358" height="91"/><rect x="87.54" y="16.91" width="9.76" height="54.91"/><path d="M943.21,379.51a6.1,6.1,0,1,0,6.1-6.1A6.1,6.1,0,0,0,943.21,379.51Z" transform="translate(-673.24 -335.15)"/><polygon points="12.96 66.52 10.86 57.15 29.07 38.94 22.07 31.94 0 54 4.66 74.81 25.48 79.48 29.33 75.63 22.33 68.62 12.96 66.52"/><polygon points="44.13 9.87 40.28 13.72 47.29 20.73 56.66 22.83 58.75 32.19 40.54 50.41 47.55 57.41 69.61 35.35 64.95 14.53 44.13 9.87"/><path d="M925.52,363.22V395.8l23.79,13.51,23.8-13.51V363.22l-23.8-13.52ZM963.39,390l-14.08,8-14.08-8v-20.9l14.08-8,14.08,8Z" transform="translate(-673.24 -335.15)"/><polygon points="120.51 16.91 102.18 16.91 102.18 21.79 102.18 26.67 116.46 26.67 123.18 33.38 116.46 40.09 102.18 40.09 102.18 48.63 116.46 48.63 123.18 55.34 116.46 62.05 102.18 62.05 102.18 71.82 120.51 71.82 136.98 55.34 126 44.36 136.98 33.38 120.51 16.91"/><polygon points="197.36 26.67 216.27 26.67 216.27 71.82 226.04 71.82 226.04 26.67 244.95 26.67 244.95 16.91 197.36 16.91 197.36 26.67"/><polygon points="347.88 16.91 334.2 30.58 320.53 16.91 310.41 16.91 310.41 71.82 320.17 71.82 320.17 30.35 334.2 44.39 348.24 30.35 348.24 71.82 358 71.82 358 16.91 347.88 16.91"/><polygon points="165.02 35.46 145.58 16.02 138.68 22.92 160.14 44.39 160.14 71.82 169.9 71.82 169.9 44.39 191.37 22.92 184.46 16.02 165.02 35.46"/><polygon points="10.86 32.19 12.96 22.83 22.33 20.73 40.54 38.94 47.55 31.94 25.48 9.87 4.66 14.53 0 35.35 3.85 39.2 10.86 32.19"/><polygon points="58.75 57.15 56.66 66.52 47.29 68.62 29.07 50.41 22.07 57.41 44.13 79.48 64.95 74.81 69.61 54 65.76 50.15 58.75 57.15"/></svg>