<svg id="Layer_1" data-name="Layer 1" xmlns="http://www.w3.org/2000/svg" viewBox="0 0 923.08 231.28"><defs><style>.cls-1{opacity:0.6;}.cls-1,.cls-2,.cls-3{isolation:isolate;}.cls-2{opacity:0.8;}.cls-3{opacity:0.9;}</style></defs><path d="M400.17,417.44a3.05,3.05,0,0,1-3.08,3H340.43c1.45,14,12,26.83,26.83,26.83,10.18,0,17.7-3.84,23.34-12a3,3,0,0,1,2.48-1.45,2.74,2.74,0,0,1,2.82,2.82,2.64,2.64,0,0,1-.43,1.45c-5.73,9.91-17.09,14.79-28.21,14.79-19.05,0-32.73-17.1-32.73-35.3s13.59-35.3,32.73-35.3,32.83,16.92,32.91,35.13Zm-6.07-2.65c-1.19-14-12-26.84-26.84-26.84s-25.38,12.82-26.83,26.84ZM469,383.68a2.89,2.89,0,0,1,2.82,2.82,2.74,2.74,0,0,1-2.82,2.82H453.76v59.74a2.85,2.85,0,0,1-2.82,2.82,2.9,2.9,0,0,1-2.82-2.82V389.32H433.5a2.74,2.74,0,0,1-2.82-2.82,2.84,2.84,0,0,1,2.82-2.82h14.62v-21.8a3,3,0,0,1,2.56-3,2.79,2.79,0,0,1,3.17,2.82v22Zm92.82,28.88v36.16a2.9,2.9,0,0,1-2.82,2.82,2.74,2.74,0,0,1-2.82-2.82V412.56c0-12.22-6.92-24.35-20.51-24.35-17.43,0-25,15.21-23.93,30.85,0,.43.17,2.22.17,2.48v27.09a3,3,0,0,1-2.56,3,2.79,2.79,0,0,1-3.17-2.82V329.91a2.85,2.85,0,0,1,2.82-2.82,2.9,2.9,0,0,1,2.82,2.82v67.18c4.88-8.71,13.59-14.61,23.77-14.61C552.31,382.48,561.79,397.09,561.79,412.56Zm101.8,4.88a3.05,3.05,0,0,1-3.08,3H603.85c1.45,14,12,26.83,26.83,26.83,10.17,0,17.7-3.84,23.34-12a3,3,0,0,1,2.48-1.45,2.74,2.74,0,0,1,2.82,2.82,2.64,2.64,0,0,1-.43,1.45c-5.73,9.91-17.1,14.79-28.21,14.79-19.06,0-32.73-17.1-32.73-35.3s13.59-35.3,32.73-35.3c19,0,32.74,16.92,32.91,35.13Zm-6.15-2.65c-1.2-14-12-26.84-26.84-26.84s-25.39,12.82-26.84,26.84Zm75.72-28.47a2.87,2.87,0,0,1-2.65,3.08c-16.66,2.48-24.19,16.07-24.19,31.88v27.1a3,3,0,0,1-2.56,3,2.79,2.79,0,0,1-3.16-2.82v-61.8a3,3,0,0,1,2.56-3,2.79,2.79,0,0,1,3.16,2.82v12.57c4.71-7.95,14-15.47,23.77-15.47a2.92,2.92,0,0,1,3.07,2.64Zm93.25,31.12a3.05,3.05,0,0,1-3.08,3H766.67c1.45,14,12,26.83,26.83,26.83,10.18,0,17.7-3.84,23.34-12a3,3,0,0,1,2.48-1.45,2.74,2.74,0,0,1,2.82,2.82,2.64,2.64,0,0,1-.43,1.45C816,448,804.62,452.91,793.5,452.91c-19.06,0-32.73-17.1-32.73-35.3s13.59-35.3,32.73-35.3,32.82,16.92,32.91,35.13Zm-6.07-2.65c-1.19-14-12-26.84-26.84-26.84s-25.38,12.82-26.83,26.84ZM918,387v62.05a2.9,2.9,0,0,1-2.82,2.82,2.74,2.74,0,0,1-2.82-2.82v-11.8c-4.7,9.32-13,16.07-23.59,16.07-16.83,0-26.15-14.61-26.15-30.08V386.92a2.85,2.85,0,0,1,2.82-2.82,2.91,2.91,0,0,1,2.82,2.82v36.33c0,12.22,6.92,24.36,20.51,24.36,19.06,0,23.59-17.87,23.59-37.61V386.84a2.87,2.87,0,0,1,3.85-2.65A3.25,3.25,0,0,1,918,387Zm143.51,25.3v36.32a2.89,2.89,0,0,1-2.82,2.82,2.73,2.73,0,0,1-2.82-2.82V412.31c0-12.22-6.93-24.19-20.52-24.19-17.09,0-23.59,18.29-23.59,32.48v28a2.89,2.89,0,0,1-2.82,2.82,2.74,2.74,0,0,1-2.82-2.82V412.31c0-12.22-6.92-24.19-20.51-24.19-17.26,0-24.36,13.59-23.76,31.71,0,.43.17,1.2,0,1.45v27.27a3,3,0,0,1-2.56,3,2.79,2.79,0,0,1-3.17-2.82v-62a3,3,0,0,1,2.57-3,2.79,2.79,0,0,1,3.16,2.82v10.34c4.87-8.71,13.59-14.44,23.76-14.44,11.54,0,20.51,7.35,24.19,18,4.7-10.6,13.85-18,25.55-18,16.67,0,26.16,14.44,26.16,29.83Z" transform="translate(-138.46 -284.36)"/><path class="cls-1" d="M209.4,444.1l71-42-71-32.23-70.94,32.23Z" transform="translate(-138.46 -284.36)"/><path class="cls-2" d="M209.4,369.91V284.36L138.46,402.14l70.94,42Z" transform="translate(-138.46 -284.36)"/><path class="cls-3" d="M209.4,444.1l71-42-71-117.78V444.1Z" transform="translate(-138.46 -284.36)"/><path class="cls-2" d="M209.4,457.52l-70.94-41.88,70.94,100Z" transform="translate(-138.46 -284.36)"/><path class="cls-3" d="M280.43,415.64l-71,41.88v58.12Z" transform="translate(-138.46 -284.36)"/></svg>