<svg id="Layer_1" data-name="Layer 1" xmlns="http://www.w3.org/2000/svg" xmlns:xlink="http://www.w3.org/1999/xlink" viewBox="0 0 739.51 198.67"><defs><style>.cls-1{fill:#247cf6;}.cls-2{fill:url(#linear-gradient);}.cls-3{fill:url(#linear-gradient-2);}.cls-4{fill:url(#linear-gradient-3);}.cls-5{fill-opacity:0.88;}</style><linearGradient id="linear-gradient" x1="247.07" y1="293.72" x2="232.63" y2="401.44" gradientTransform="matrix(1, 0, 0, -1, 0, 770)" gradientUnits="userSpaceOnUse"><stop offset="0" stop-color="#666"/><stop offset="0.39" stop-color="#6a6a6a"/><stop offset="0.81" stop-color="#777"/><stop offset="1" stop-color="gray"/></linearGradient><linearGradient id="linear-gradient-2" x1="236.08" y1="238.85" x2="226.03" y2="394.16" gradientTransform="matrix(1, 0, 0, -1, 0, 770)" gradientUnits="userSpaceOnUse"><stop offset="0" stop-color="#333"/><stop offset="0.05" stop-color="#383838"/><stop offset="0.2" stop-color="#444"/><stop offset="0.42" stop-color="#4b4b4b"/><stop offset="1" stop-color="#4d4d4d"/></linearGradient><linearGradient id="linear-gradient-3" x1="233.41" y1="271.73" x2="233.41" y2="192.98" gradientTransform="matrix(1, 0, 0, -1, 0, 770)" gradientUnits="userSpaceOnUse"><stop offset="0" stop-color="#1a1a1a"/><stop offset="0.59" stop-color="#181818"/><stop offset="0.8" stop-color="#111"/><stop offset="0.95" stop-color="#060606"/><stop offset="1"/></linearGradient></defs><title>vapor</title><path class="cls-1" d="M262,525.41a492,492,0,0,0,67,18A494,494,0,0,0,268.56,577a493,493,0,0,1-130.7-45.13,495.14,495.14,0,0,1,60.53-33.62,497,497,0,0,1-59.3-35.77,492.79,492.79,0,0,1,64.75-24.84,498.64,498.64,0,0,1-53.92-43.77,493.48,493.48,0,0,1,67.59-15.54,496.48,496.48,0,0,0,53.92,43.77,494.47,494.47,0,0,0,59.28,35.75,492.21,492.21,0,0,0-67.6,15.56,495.07,495.07,0,0,0,63.53,27.13A491.92,491.92,0,0,0,262,525.41Z" transform="translate(-137.86 -378.35)"/><path class="cls-2" d="M330.71,457.87a492.21,492.21,0,0,0-67.6,15.56,495.93,495.93,0,0,1-59.28-35.77,498.64,498.64,0,0,1-53.92-43.77,493.48,493.48,0,0,1,67.59-15.54,496.59,496.59,0,0,0,53.93,43.77,493.17,493.17,0,0,0,59.28,35.75Z" transform="translate(-137.86 -378.35)"/><path class="cls-3" d="M326.65,500.55A493,493,0,0,0,262,525.41a491.38,491.38,0,0,1-63.61-27.14,499.14,499.14,0,0,1-59.31-35.76,493.51,493.51,0,0,1,64.76-24.85,496.63,496.63,0,0,0,122.81,62.89Z" transform="translate(-137.86 -378.35)"/><path class="cls-4" d="M329,543.44A494,494,0,0,0,268.56,577a493,493,0,0,1-130.7-45.13,496.48,496.48,0,0,1,60.53-33.62A493.83,493.83,0,0,0,329,543.44Z" transform="translate(-137.86 -378.35)"/><path class="cls-5" d="M486,391.94H458.32l-27.26,88.43-27.25-88.43H376.37l44.78,135.69H441Zm81.94,135.69V462.26c0-23.25-14.49-35.06-42.31-35.06-16.58,0-26.1,3.05-35.82,13.72l15.81,15.44c5.15-5.91,9.53-8.2,19.06-8.2,13.15,0,18.49,4.77,18.49,15.63v4.95H519.68c-23.06,0-33.92,13-33.92,28.78,0,8.77,2.85,16.77,8.19,22.3,5.91,5.91,14.1,8.77,25.34,8.77,11.44,0,17.73-2.86,24.4-9.53v8.57ZM543.11,491c0,6.1-1,10.1-3.62,12.58-4.38,4.19-8.76,4.77-15.62,4.77-9.72,0-14.29-4.58-14.29-11.44,0-7.05,4.95-11.24,13.91-11.24h19.62Zm134.54-13.15c0-14.86-.19-31.83-10.1-41.74-5.52-5.52-14.48-8.95-24.2-8.95-10.48,0-17.91,2.86-24.77,10.48v-9.34h-24V564h24.77V518.87c6.48,7.23,13.91,9.91,24,9.91,9.72,0,18.68-3.43,24.2-9C677.47,509.91,677.65,492.76,677.65,477.89Zm-24.77,0c0,16.2-1.9,28.59-16.77,28.59s-16.77-12.39-16.77-28.59,1.91-28.39,16.77-28.39,16.77,12.19,16.77,28.39Zm128.25,0c0-17.91-2.28-29.16-11.24-38.49-6.1-6.48-16.2-12.2-30.87-12.2s-24.59,5.72-30.68,12.19c-9,9.34-11.24,20.59-11.24,38.5,0,18.11,2.28,29.35,11.24,38.69,6.09,6.48,16,12.2,30.68,12.2s24.77-5.72,30.87-12.2C778.85,507.24,781.13,496,781.13,477.89Zm-24.77,0c0,10.29-.57,19.06-5.72,24.21A15.68,15.68,0,0,1,739,506.48a15.24,15.24,0,0,1-11.43-4.38c-5.15-5.15-5.72-13.92-5.72-24.21s.57-18.87,5.72-24A15.29,15.29,0,0,1,739,449.49a15.64,15.64,0,0,1,11.63,4.39C755.79,459,756.36,467.6,756.36,477.89Zm121-41.35c-6.86-6.86-13.73-9.35-23.44-9.35-10.67,0-20.2,5-25,10.68v-9.53h-24.2v99.29h24.78V467.79c0-12.58,8.38-18.29,16-18.29,6.1,0,9.34,2.09,13.15,5.9Z" transform="translate(-137.86 -378.35)"/></svg>