<svg id="Layer_1" data-name="Layer 1" xmlns="http://www.w3.org/2000/svg" viewBox="0 0 653.54 175"><defs><style>.cls-1{fill-opacity:0.88;}</style></defs><title>vapor</title><path d="M258.7,519.73a435.49,435.49,0,0,0,59,15.88,433.76,433.76,0,0,0-53.21,29.58,434.45,434.45,0,0,1-115.13-39.75,434.82,434.82,0,0,1,53.32-29.62,438.69,438.69,0,0,1-52.24-31.51,435.13,435.13,0,0,1,57-21.88A440.11,440.11,0,0,1,160,403.87a434.81,434.81,0,0,1,59.54-13.68A438.19,438.19,0,0,0,267,428.74a434.24,434.24,0,0,0,52.21,31.49,435.35,435.35,0,0,0-59.55,13.7,434.43,434.43,0,0,0,56,23.9A432.63,432.63,0,0,0,258.7,519.73Z" transform="translate(-149.35 -390.19)"/><path d="M319.22,460.23a435.69,435.69,0,0,0-59.55,13.7,433.53,433.53,0,0,1-52.21-31.5A438.17,438.17,0,0,1,160,403.87a434.67,434.67,0,0,1,59.53-13.68A439.16,439.16,0,0,0,267,428.74a434.36,434.36,0,0,0,52.22,31.49Z" transform="translate(-149.35 -390.19)"/><path d="M315.65,497.83a432.23,432.23,0,0,0-56.95,21.9,431.3,431.3,0,0,1-56-23.91,438.21,438.21,0,0,1-52.25-31.5,434.45,434.45,0,0,1,57-21.89,437.36,437.36,0,0,0,108.19,55.4Z" transform="translate(-149.35 -390.19)"/><path d="M317.69,535.61a433.76,433.76,0,0,0-53.21,29.58,434.45,434.45,0,0,1-115.13-39.75,434.82,434.82,0,0,1,53.32-29.62,435.12,435.12,0,0,0,115,39.79Z" transform="translate(-149.35 -390.19)"/><path class="cls-1" d="M439,398H413.29L388,480.2,362.62,398H337.11l41.63,126.15h18.43Zm76.18,126.15V463.37c0-21.62-13.46-32.6-39.33-32.6-15.41,0-24.27,2.83-33.31,12.75l14.71,14.36c4.78-5.5,8.86-7.62,17.72-7.62,12.22,0,17.18,4.43,17.18,14.53v4.6H470.34c-21.44,0-31.54,12.06-31.54,26.76,0,8.15,2.66,15.59,7.62,20.73,5.49,5.49,13.11,8.15,23.57,8.15,10.63,0,16.47-2.66,22.67-8.86v8Zm-23-34c0,5.68-.88,9.4-3.36,11.7-4.08,3.9-8.15,4.43-14.53,4.43-9,0-13.29-4.25-13.29-10.63,0-6.56,4.61-10.46,12.93-10.46h18.25ZM617.22,477.9c0-13.82-.18-29.59-9.39-38.81-5.14-5.13-13.47-8.32-22.5-8.32-9.75,0-16.65,2.66-23,9.74v-8.68H540V558h23V516c6,6.73,12.94,9.22,22.33,9.22,9,0,17.36-3.19,22.5-8.33C617,507.67,617.22,491.72,617.22,477.9Zm-23,0c0,15.06-1.77,26.58-15.59,26.58S563,493,563,477.9s1.77-26.4,15.59-26.4,15.59,11.34,15.59,26.4Zm119.24,0c0-16.65-2.13-27.11-10.45-35.79-5.67-6-15.06-11.34-28.71-11.34s-22.85,5.31-28.52,11.34c-8.32,8.68-10.45,19.13-10.45,35.79,0,16.83,2.13,27.28,10.45,36,5.67,6,14.88,11.34,28.52,11.34s23-5.32,28.71-11.34C711.29,505.19,713.42,494.73,713.42,477.9Zm-23,0c0,9.57-.53,17.72-5.32,22.5a14.53,14.53,0,0,1-10.81,4.08,14.13,14.13,0,0,1-10.63-4.08c-4.78-4.78-5.31-12.93-5.31-22.5s.53-17.54,5.31-22.33a14.17,14.17,0,0,1,10.63-4.07,14.57,14.57,0,0,1,10.81,4.07C689.85,460.36,690.39,468.33,690.39,477.9Zm112.5-38.45c-6.38-6.38-12.76-8.69-21.79-8.69-9.92,0-18.78,4.61-23.21,9.93v-8.86h-22.5v92.31h23V468.51c0-11.7,7.8-17,14.88-17,5.67,0,8.69,1.95,12.23,5.49Z" transform="translate(-149.35 -390.19)"/></svg>