<svg id="Layer_1" data-name="Layer 1" xmlns="http://www.w3.org/2000/svg" viewBox="0 0 2013.31 468"><defs><style>.cls-1{fill-rule:evenodd;}</style></defs><path d="M1698.91,1026h-44.37l-71.42-118.82a105.28,105.28,0,0,1-7.14-15.37h-.87q-2.16,5-7.36,15.37L1494.16,1026h-44.58l103.89-156L1457.8,715.63h44.59l63.41,109.09a216.64,216.64,0,0,1,11,21.64h.87a237,237,0,0,1,12.12-22.51l66-108.22h41.77L1600,869.52Z" transform="translate(-749.12 -630)"/><path d="M1790.55,748.1a22.47,22.47,0,0,1-16.24-6.49,21.93,21.93,0,0,1-6.71-16.45,22.73,22.73,0,0,1,23-23.16,22.9,22.9,0,0,1,16.55,6.6,23.12,23.12,0,0,1,0,32.79A22.72,22.72,0,0,1,1790.55,748.1Z" transform="translate(-749.12 -630)"/><rect x="1023.25" y="174.37" width="35.5" height="221.63"/><path d="M2094.72,1026h-35.5V899.6q0-70.54-51.51-70.55-26.62,0-44,20t-17.43,50.53V1026h-35.49V804.37h35.49v36.8h.87q25.1-42,72.72-42,36.36,0,55.62,23.48t19.27,67.85Z" transform="translate(-749.12 -630)"/><polygon points="1605.83 118.53 1484.63 118.53 1484.63 225.88 1596.74 225.88 1596.74 258.56 1484.63 258.56 1484.63 396 1448.27 396 1448.27 85.64 1605.83 85.64 1605.83 118.53"/><path d="M2458.25,748.1a22.47,22.47,0,0,1-16.23-6.49,21.93,21.93,0,0,1-6.71-16.45A22.73,22.73,0,0,1,2458.25,702a22.93,22.93,0,0,1,16.56,6.6,23.12,23.12,0,0,1,0,32.79A22.74,22.74,0,0,1,2458.25,748.1Z" transform="translate(-749.12 -630)"/><rect x="1690.96" y="174.37" width="35.5" height="221.63"/><path d="M2762.42,1026h-35.49V899.6q0-70.54-51.51-70.55-26.62,0-44.05,20T2614,899.6V1026h-35.5V804.37H2614v36.8h.86q25.11-42,72.73-42,36.36,0,55.62,23.48t19.26,67.85Z" transform="translate(-749.12 -630)"/><path class="cls-1" d="M928.79,828.3s-12.26,12.78-8.69,28.62c0,0,6.14,12.77,8.69,20.44l1,5.11L940,883l7.16.51,3.06,3.57,2,3.07,2,6.64,1,3.58,5.11,5.11,2.56,4.6,2.55,3.58,5.11,7.15,3.58,5.11,3.06,6.13,3.58,4.09,3.07,4.09,2,4.6-1.53,6.64-2.56,4.6,2.05,4.6,20.95,2.55-1.54-7.15-5.62-6.14-6.13-3.57-.51-4.09v-4.6l1.53-6.64,3.07-7.15,2-3.07,3.58-2,2.55-5.11-1-3.07s-1-4.6,2.56-6.13,4.08-2,4.08-2l3.07-1.54,5.11-3.06.51-6.65-.51-4.6-1-5.62v-4.08l7.15-4.09,5.11-5.62.51-2.56-2-6.64-8.69-1.53h-5.11c-3.06,0-9.19-.51-9.19-.51l-6.65-3.58-4.6-2.56-2.55-3.57-1-2.56-1.54-2L984.49,838,981.93,835l-3.06.51-6.65-1-7.66-1L961,826.26l-3.06-4.09-8.69-.51-5.11,1-6.64-3.58L933.39,812l-6.13-2.55-7.16-7.16L914,796.62,910.39,791l-3.06-6.64-3.58-4.6-2-3.07-2.56-5.62-1-5.11V762.9a28.21,28.21,0,0,1,.51-4.6,19.84,19.84,0,0,1,5.62-2.56c2.56-.51,1-.51,4.09-1s2-.51,4.6-.51a21.2,21.2,0,0,1,4.6.51s1.53,10.22.51,12.78-2.56,12.26-2.56,12.26v6.13l5.63,5.62,3.06-13.79-.51-3.07-.51-5.11s-.51-4.09-.51-6.13V758.3l5.11-8.18a11.75,11.75,0,0,1,3.58-3.06,8.46,8.46,0,0,0,3.06-2.56l3.58-2s4.09-2.05,5.11-4.09l3.06-6.13,3.58-3.58,3.07-2,7.15-5.11,6.64-6.13,3.07-2,3.06,1.54s.51-.51,2.56,1.53,1,8.17,5.11,2.55a24.26,24.26,0,0,0,4.6-10.73l-4.6-.51-2.56-1-3.06-1.53-1.54-3.07,3.07-4.09,2.56-1.53H983l3.07,1h3.58a22,22,0,0,0,9.19-2.55l1-3.58,3.06-8.17-1.53-4.6-4.6-2.56h-4.6l-3.58-.51L985,673l2.55-6.65a23.41,23.41,0,0,1,4.09-3.06c2.56-1.54,6.64-4.6,6.64-4.6l5.62-3.58,6.65.51,4.08,3.07s1.54-.51,3.58,1.53,9.2,6.64,9.2,6.64a49.17,49.17,0,0,1,12.77-4.08l4.09-2.56,3.07-3.58,3.06-5.62,5.62,3.58,4.6-1.53,6.65-3.07s.51-.51,3.06-.51h4.6a30,30,0,0,1,5.11.51h7.66l5.11,3.58a2.84,2.84,0,0,1,1,3.06c-.52,2-1.54.52-1.54,3.58s5.62,5.62,5.62,5.62l4.09-2.55.51-2.56,7.16.51,6.13,4.6,2.55,2.05.51,3.57L1110.7,674l-8.69.51-5.62-3.58-6.13,3.07-5.62,2.55,3.06,6.13,5.11-1c2.56,0,6.65,3.58,6.65,3.58l-6.65,4.6-5.11.51-4.08,3.58s-.51,0,3.57,1.53,5.11,2,5.11,2l3.07,3.07v5.11l-1.53,2-1.54,4.6h9.2l5.11-2.55,2-2,3.07-6.13s-3.58-1,1.53-2,5.62-1,5.62-1H1124l4.09,3.06,5.62,1,3.58-.51.51-3.57,5.11-2.56,2.55,4.6.52,3.58,2.55,2.55,2,2,2.56,2,4.09,1,.51-3.58V702.6l4.09-.51,3.57,3.07,2.56,1a3.62,3.62,0,0,1,3.06,2,61.54,61.54,0,0,0,4.09,6.14l1.53,2.55-.51,3.07c-2,.51-5.62,1-5.62,1a23.1,23.1,0,0,1-4.6-2.56l-2-1.53-4.6,4.6s2-.51-1,2.55l-3.07,3.07-3.06-.51-4.09-5.11-4.09-1.53-3.57-1-1.54-3.06-8.68-6.13h-3.07l-3.58,4.08h-3.57l-2.05-3.06-3.58,2.55-7.66,3.58-2.55.51-11.25,2-5.62,2.56-2.55,5.62s1.53,1-.51,3.07-5.62,7.66-5.62,7.66l-3.58,5.62v4.6l1,2.56,1,3.06v4.09l-2.55,10.22-1,2.55-1,6.14,6.64,3.57a25.07,25.07,0,0,0,6.13,6.64l4.6,5.63,5.11,3.06c2.55,1.53,2,1.53,4.6,1.53s8.17-.51,8.17-.51h4.09l10.22.51h7.66l7.16.52h6.13l7.66,1.53.52,3.57.51,5.11V812l1.53,2.56.51,2.55,2,3.58,2,2.55,3.06,5.11a7.62,7.62,0,0,1,2.56,3.58c.51,2,2,4.09-1,6.13s-5.11,10.73-5.11,10.73l.51,5.62v4.09l1,4.09v10.22a21.2,21.2,0,0,0,.51,4.6l.51,4.59,1.53,5.63a49.75,49.75,0,0,1,2,5.62,12.69,12.69,0,0,0,1.53,3.57l1.53,2.56,2.56,2.55,2.55.52,4.09-6.14,6.13-7.66,3.58-5.62,2.55-4.6s1-3.07,2.05-5.62a13.23,13.23,0,0,1,3.58-4.6l4.6-6.13,4.59-4.09s1-.51,2.56-3.07a72.49,72.49,0,0,0,3.58-7.66,48.38,48.38,0,0,0,.51-7.15V829.84a14.8,14.8,0,0,1,0-5.11c.51-2.56,0-2.05,1-4.6s3.58-7.16,3.58-7.16l3.06-5.62a20.09,20.09,0,0,0,2-5.11c1-3.57,1.53-4.6,2-6.64s1-1.53,1-5.11.51-7.15.51-9.2.51-3.06-.51-5.11,0-2-2.55-4.6-3.58-3.06-5.62-5.1-4.09-3.07-6.14-5.11-4.08-3.07-5.62-5.11a34.26,34.26,0,0,1-3.06-5.63s-2-1,1-2.55,4.09-2.56,6.13-2a13.7,13.7,0,0,1,4.09,2l2.55,2.55,5.11,1,6.65-6.14,1-6.64-3.58-3.06-2,3.06-.51,4.6-6.65-2.55-1.53-3.58,1.53-5.11,4.09-2,.51-5.11s-3.57-4.6-5.62-7.16-8.17-11.24-8.17-11.24a14.47,14.47,0,0,0-3.07-3.07,37.71,37.71,0,0,1-5.11-5.62l-9.2-7.15-7.66-6.13-8.69-6.13s-6.13-4.6-8.69-6.14-9.7-6.64-9.7-6.64l-10.22-6.13a39.54,39.54,0,0,0-6.39-2.81l-10.35-4.6-21.84-6.9-26.83-4.6h-23l-17.63,1.15-17.63,1.92-18.39,5.75-11.89,3.83-24.14,11.5L951.78,673,943,679.86,904.26,722l-5.36,7.28-10.73,20.31,1.53,5,3.45-3.83,1.53,3.83-2.3,7.29-.76,15.71,3.06,7.66,3.83,6.52,4.22,5.36,5.37,4.6,3.83,4.22,2.3,3.06,2.3,3.07,2.3,1.53-1.15,6.52.76,12.64-.38,8.05s2.58-6.15,4-9.6c.57-1.34,1-2.28,1-2.28l-.76-3.45-1.15-4.6-.77-3.83,3.45-.76,3.06.76,1.92,2.68.38,3.45-2.3,2.69-1.14,1.91Z" transform="translate(-749.12 -630)"/><path d="M1183.29,917.32a174.21,174.21,0,0,1-13.93,11.42h-12.09c1.2-1.36,2.39-2.73,3.56-4.14a174.07,174.07,0,0,0,26.47-44h26.24A163,163,0,0,1,1183.29,917.32Zm-36.9,22.53h5.93q-7.26,4.17-14.9,7.64Q1142,943.89,1146.39,939.85Zm-181.3,0H971q4.37,4,9,7.64Q972.36,944,965.09,939.85Zm-61.22-59.28h26.24a174.36,174.36,0,0,0,26.47,44c1.17,1.41,2.36,2.78,3.57,4.14H948.06a172.6,172.6,0,0,1-13.94-11.42A163,163,0,0,1,903.87,880.57Zm30.25-190.12A172.6,172.6,0,0,1,948.06,679h12.09q-1.81,2-3.57,4.14a174.47,174.47,0,0,0-26.47,44H903.87A163.14,163.14,0,0,1,934.12,690.45ZM971,667.91h-5.94q7.26-4.15,14.9-7.64Q975.4,663.87,971,667.91Zm181.29,0h-5.93q-4.38-4-9-7.64Q1145.05,663.75,1152.32,667.91Zm61.22,59.28H1187.3a174.18,174.18,0,0,0-26.47-44q-1.75-2.11-3.56-4.14h12.09a174.21,174.21,0,0,1,13.93,11.42A163.14,163.14,0,0,1,1213.54,727.19Zm-11.28,71.14a200.05,200.05,0,0,0-10.72-60h28.06a147.87,147.87,0,0,1,15.18,60Zm-70.79,71.13a361.91,361.91,0,0,0,5.73-60h52.85a189.13,189.13,0,0,1-11.4,60Zm-18.37,59.28q1.28-2.65,2.49-5.44a235.7,235.7,0,0,0,13.61-42.73h44.92a158.19,158.19,0,0,1-33,48.17Zm-5.89,11.11h21.16a119.84,119.84,0,0,1-35.1,18.81A100.64,100.64,0,0,0,1107.21,939.85Zm-97,0a100.64,100.64,0,0,0,13.94,18.81A120,120,0,0,1,989,939.85Zm-22-59.28a235.7,235.7,0,0,0,13.61,42.73q1.21,2.79,2.49,5.44h-28a158.37,158.37,0,0,1-33-48.17Zm-60.85-71.13h52.86a360.87,360.87,0,0,0,5.72,60H938.76A189.13,189.13,0,0,1,927.36,809.44Zm58.58-71.13a360.66,360.66,0,0,0-5.72,60H927.36a189.08,189.08,0,0,1,11.4-60ZM1004.31,679q-1.27,2.64-2.49,5.43a235.7,235.7,0,0,0-13.61,42.73H943.29a158.2,158.2,0,0,1,33-48.16Zm5.89-11.12H989a120.44,120.44,0,0,1,35.1-18.81A101,101,0,0,0,1010.2,667.91Zm97,0a101,101,0,0,0-13.94-18.81,120.18,120.18,0,0,1,35.1,18.81Zm22,59.28a235.7,235.7,0,0,0-13.61-42.73q-1.21-2.79-2.49-5.43h28a158,158,0,0,1,33,48.16Zm-64.39,71.14v-60h54.28a349.2,349.2,0,0,1,5.9,60Zm0,71.13v-60H1125a349.22,349.22,0,0,1-5.89,60Zm-12.21-60v60H998.32a349.2,349.2,0,0,1-5.9-60Zm0-71.13v60H992.42a349.2,349.2,0,0,1,5.9-60Zm51.65-49.74a224,224,0,0,1,12.5,38.62h-51.94V679h34.89Q1102.05,683.55,1104.25,688.57Zm-11.08-20.66h-28.36v-23.7C1074.71,646.62,1084.47,654.84,1093.17,667.91Zm-40.57-23.7v23.7h-28.36C1032.94,654.84,1042.71,646.62,1052.6,644.21ZM1017.71,679h34.89v48.16h-51.94a224,224,0,0,1,12.5-38.62Q1015.37,683.55,1017.71,679Zm-4.55,240.17a224.16,224.16,0,0,1-12.5-38.63h51.94v48.17h-34.89Q1015.37,924.23,1013.16,919.2Zm11.08,20.65h28.36v23.71C1042.71,961.14,1032.94,952.93,1024.24,939.85Zm40.57,23.71V939.85h28.36C1084.47,952.93,1074.71,961.14,1064.81,963.56Zm34.89-34.82h-34.89V880.57h51.94a224.16,224.16,0,0,1-12.5,38.63Q1102.06,924.22,1099.7,928.74Zm37.5-130.41a361.71,361.71,0,0,0-5.73-60h47.18a189.08,189.08,0,0,1,11.4,60Zm-239.39-60h28.07a199.75,199.75,0,0,0-10.73,60H882.63A147.87,147.87,0,0,1,897.81,738.31Zm-15.18,71.13h32.52a199.8,199.8,0,0,0,10.73,60H897.81A147.91,147.91,0,0,1,882.63,809.44Zm337,60h-28.06a200.11,200.11,0,0,0,10.72-60h32.52A147.91,147.91,0,0,1,1219.6,869.46Zm-27.67-186.87c-35.59-32.4-82.9-50.25-133.22-50.25s-97.64,17.85-133.22,50.25S870.3,758.06,870.3,803.88s19.6,88.9,55.19,121.3,82.89,50.24,133.22,50.24,97.63-17.84,133.22-50.24,55.18-75.48,55.18-121.3S1227.51,715,1191.93,682.59Z" transform="translate(-749.12 -630)"/><polygon points="309.97 448.51 332.41 464.87 323.92 438.21 346.35 422.46 319.07 422.46 309.97 395.2 300.88 422.46 273.59 422.46 296.03 438.21 287.54 464.87 309.97 448.51"/><path d="M1205.49,630c42.92-1.53,52.12,39.09,52.12,39.09C1219.28,658.4,1205.49,630,1205.49,630Zm16.09,56.72c36-13,61.32,19.16,61.32,19.16C1245.34,710.52,1221.58,686.76,1221.58,686.76Zm69,6.9c-26.82-20.7-23-55.95-23-55.95C1294.39,650.74,1290.56,693.66,1290.56,693.66ZM1243,718.19c42.16-5.37,62.09,24.52,62.09,24.52C1258.37,742,1243,718.19,1243,718.19Zm72,18.39c-23-34.49-10-56.72-10-56.72C1331.19,695.19,1315.09,736.58,1315.09,736.58Zm-42.92,14.56c36.79-.76,47.52,36.79,47.52,36.79C1281.37,783.34,1272.17,751.14,1272.17,751.14Zm61.32,32.2c-16.87-33.73,8.43-61.32,8.43-61.32C1356.48,750.38,1333.49,783.34,1333.49,783.34Zm-51.36,4.59c35.26,9.2,38.33,44.46,38.33,44.46C1282.9,824,1282.13,787.93,1282.13,787.93Zm53.65,43.69c.77-39.09,27.6-52.88,27.6-52.88C1371,812.46,1335.78,831.62,1335.78,831.62Zm-24.52,59c-36-19.93-32.19-62.08-32.19-62.08C1315.86,847,1311.26,890.64,1311.26,890.64Zm15.33-1.53c-2.3-39.09,35.26-60.55,35.26-60.55C1361.85,868.41,1326.59,889.11,1326.59,889.11Zm-23,52.12c20.7-43.69,60.55-45.22,60.55-45.22C1355,931.26,1303.59,941.23,1303.59,941.23Zm-11.49-2.3c-31.43-29.89-21.46-69.75-21.46-69.75C1302.06,889.11,1292.1,938.93,1292.1,938.93Zm-34.49,44.45c-26.83-33-6.9-65.91-6.9-65.91C1279.07,942.76,1257.61,983.38,1257.61,983.38Zm12.26,5.37c19.93-39.86,65.91-37.56,65.91-37.56C1321.22,988.75,1269.87,988.75,1269.87,988.75Zm-52.12,42.15c31.42-39.09,83.54-20.69,83.54-20.69C1280.6,1041.63,1217.75,1030.9,1217.75,1030.9Zm-7.67-16.09c-16.86-42.16,13.8-69,13.8-69C1240.74,994.11,1210.08,1014.81,1210.08,1014.81Zm-42.15,26.06c-17.63-49.06,22.23-77.42,22.23-77.42C1197.05,1016.34,1167.93,1040.87,1167.93,1040.87Zm10,15.33s25.3-23.76,81.25-.77C1259.14,1055.43,1212.38,1079.19,1177.89,1056.2Zm-44.45,16.86s41.39-19.16,83.54,23.76C1217,1096.82,1144.94,1106,1133.44,1073.06ZM1125,1058.5c-18.4-56,20.69-77.42,20.69-77.42C1156.43,1024.77,1125,1058.5,1125,1058.5Z" transform="translate(-749.12 -630)"/><path d="M856,669.13s9.2-40.62,52.12-39.09C908.1,630,894.3,658.4,856,669.13Zm-25.29,36.79S856,673.73,892,686.76C892,686.76,868.24,710.52,830.69,705.92ZM846,637.71s3.84,35.25-23,55.95C823,693.66,819.19,650.74,846,637.71Zm-37.55,105s19.93-29.89,62.08-24.52C870.54,718.19,855.21,742,808.46,742.71Zm0-62.85s13,22.23-10,56.72C798.49,736.58,782.4,695.19,808.46,679.86ZM793.89,787.93s10.74-37.55,47.53-36.79C841.42,751.14,832.22,783.34,793.89,787.93ZM771.67,722s25.29,27.59,8.43,61.32C780.1,783.34,757.1,750.38,771.67,722Zm21.46,110.37s3.06-35.26,38.32-44.46C831.45,787.93,830.69,824,793.13,832.39Zm-42.92-53.65S777,792.53,777.8,831.62C777.8,831.62,742.54,812.46,750.21,778.74Zm84.31,49.82s3.83,42.15-32.19,62.08C802.33,890.64,797.73,847,834.52,828.56Zm-82.78,0S789.3,850,787,889.11C787,889.11,751.74,868.41,751.74,828.56ZM749.44,896s39.86,1.53,60.55,45.22C810,941.23,758.64,931.26,749.44,896ZM843,869.18s10,39.86-21.46,69.75C821.49,938.93,811.52,889.11,843,869.18Zm19.93,48.29s19.93,32.95-6.9,65.91C856,983.38,834.52,942.76,862.88,917.47ZM777.8,951.19s46-2.3,65.92,37.56C843.72,988.75,792.36,988.75,777.8,951.19Zm34.49,59s52.12-18.4,83.55,20.69C895.84,1030.9,833,1041.63,812.29,1010.21Zm77.41-64.38s30.66,26.82,13.8,69C903.5,1014.81,872.84,994.11,889.7,945.83Zm33.73,17.62s39.85,28.36,22.23,77.42C945.66,1040.87,916.53,1016.34,923.43,963.45Zm-69,92c55.95-23,81.24.77,81.24.77C901.2,1079.19,854.45,1055.43,854.45,1055.43Zm42.15,41.39c42.16-42.92,83.55-23.76,83.55-23.76C968.65,1106,896.6,1096.82,896.6,1096.82Zm71.28-115.74s39.09,21.46,20.7,77.42C988.58,1058.5,957.15,1024.77,967.88,981.08Z" transform="translate(-749.12 -630)"/></svg>